SplineFontDB: 3.2
FontName: Everglyph
FullName: Everglyph
FamilyName: Everglyph
Weight: Regular
Copyright: Copyright (c) 2025, Azterro
UComments: "2025-9-14: Created with FontForge (http://fontforge.org)"
Version: 1.000
ItalicAngle: 0
UnderlinePosition: -102
UnderlineWidth: 51
Ascent: 819
Descent: 205
InvalidEm: 0
LayerCount: 2
Layer: 0 0 "Back" 1
Layer: 1 0 "Fore" 0
XUID: [1021 750 -1000581427 4048]
StyleMap: 0x0000
FSType: 0
OS2Version: 0
OS2_WeightWidthSlopeOnly: 0
OS2_UseTypoMetrics: 1
CreationTime: 1757880759
ModificationTime: 1757930271
OS2TypoAscent: 0
OS2TypoAOffset: 1
OS2TypoDescent: 0
OS2TypoDOffset: 1
OS2TypoLinegap: 92
OS2WinAscent: 0
OS2WinAOffset: 1
OS2WinDescent: 0
OS2WinDOffset: 1
HheadAscent: 0
HheadAOffset: 1
HheadDescent: 0
HheadDOffset: 1
OS2Vendor: 'PfEd'
MarkAttachClasses: 1
DEI: 91125
LangName: 1033
Encoding: ISO8859-1
UnicodeInterp: none
NameList: AGL For New Fonts
DisplaySize: -48
AntiAlias: 1
FitToEm: 0
WinInfo: 0 38 14
BeginPrivate: 0
EndPrivate
TeXData: 1 0 0 204800 102400 68266 212992 1048576 68266 783286 444596 497025 792723 393216 433062 380633 303038 157286 324010 404750 52429 2506097 1059062 262144
BeginChars: 256 95

StartChar: A
Encoding: 65 65 0
Width: 399
InSpiro: 1
Flags: HW
LayerCount: 2
Fore
SplineSet
216 276 m 1
 216 288 l 1
 212 312 l 1
 204 345 l 1
 194 386 l 1
 182 431 l 1
 172 472 l 1
 165 504 l 1
 158 528 l 1
 154 539 l 1
 150 534 l 1
 144 506 l 1
 137 451 l 1
 133 418 l 1
 128 388 l 1
 124 371 l 1
 121 355 l 1
 117 332 l 1
 115 307 l 1
 110 263 l 1
 161 267 l 1
 186 270 l 1
 207 273 l 1
 216 276 l 1
  Spiro
    216.064 276.48 v
    216.064 287.744 v
    211.968 312.32 v
    203.776 345.088 v
    193.536 386.048 v
    182.272 431.104 v
    172.032 472.064 v
    164.864 503.808 v
    157.696 528.384 v
    153.6 538.624 v
    149.504 533.504 v
    144.384 505.856 v
    137.216 450.56 v
    133.12 417.792 v
    128 388.096 v
    123.904 370.688 v
    120.832 355.328 v
    116.736 331.776 v
    114.688 307.2 v
    109.568 263.168 v
    160.768 267.264 v
    186.368 270.336 v
    206.848 273.408 v
    0 0 z
  EndSpiro
9 -17 m 1
 3 -8 l 1
 9 22 l 1
 31 92 l 1
 43 135 l 1
 53 178 l 1
 58 210 l 1
 61 234 l 1
 66 254 l 1
 70 265 l 1
 75 274 l 1
 81 291 l 1
 85 309 l 1
 102 409 l 1
 122 534 l 1
 131 605 l 1
 134 629 l 1
 143 648 l 1
 154 655 l 1
 165 649 l 1
 174 627 l 1
 182 585 l 1
 210 453 l 1
 245 323 l 1
 268 265 l 1
 275 266 l 1
 290 270 l 1
 309 275 l 1
 331 281 l 1
 352 285 l 1
 369 287 l 1
 384 286 l 1
 390 282 l 1
 393 269 l 1
 393 258 l 1
 389 253 l 1
 379 252 l 1
 371 251 l 1
 364 249 l 1
 359 246 l 1
 354 243 l 1
 344 240 l 1
 333 240 l 1
 308 237 l 1
 291 227 l 1
 286 215 l 1
 287 205 l 1
 292 187 l 1
 298 167 l 1
 319 87 l 1
 327 27 l 1
 317 2 l 1
 301 17 l 1
 286 53 l 1
 279 89 l 1
 275 112 l 1
 269 142 l 1
 260 172 l 1
 243 223 l 1
 184 225 l 1
 125 224 l 1
 97 211 l 1
 86 177 l 1
 66 93 l 1
 42 14 l 1
 24 -22 l 1
 19 -22 l 1
 14 -20 l 1
 9 -17 l 1
  Spiro
    9.21582 -17.4082 v
    3.07227 -8.19238 v
    9.21582 21.5039 v
    30.7197 92.1602 v
    43.0078 135.168 v
    53.248 178.176 v
    58.3682 209.92 v
    61.4404 234.496 v
    65.5361 253.952 v
    69.6318 265.216 v
    74.752 274.432 v
    80.8965 290.816 v
    84.9922 309.248 v
    102.4 408.576 v
    121.856 533.504 v
    131.072 605.184 v
    134.144 628.736 v
    143.36 648.192 v
    153.6 655.36 v
    164.864 649.216 v
    174.08 626.688 v
    182.272 584.704 v
    209.92 452.608 v
    244.736 322.56 v
    268.288 265.216 v
    275.456 266.24 v
    289.792 270.336 v
    309.248 275.456 v
    330.752 280.576 v
    352.256 284.672 v
    368.64 286.72 v
    384 285.696 v
    390.144 281.6 v
    393.216 269.312 v
    393.216 258.048 v
    389.12 252.928 v
    378.88 251.904 v
    370.688 250.88 v
    363.52 248.832 v
    359.424 245.76 v
    354.304 242.688 v
    344.064 239.616 v
    332.8 239.616 v
    308.224 236.544 v
    290.816 227.328 v
    285.696 215.04 v
    286.72 204.8 v
    291.84 187.392 v
    297.984 166.912 v
    319.488 87.04 v
    326.656 26.624 v
    317.44 2.04785 v
    301.056 17.4082 v
    285.696 53.248 v
    278.528 89.0879 v
    275.456 111.616 v
    269.312 142.336 v
    260.096 172.032 v
    242.688 223.232 v
    184.32 225.28 v
    124.928 224.256 v
    97.2803 210.944 v
    86.0156 177.152 v
    65.5361 93.1836 v
    41.9844 14.3359 v
    23.5518 -21.5039 v
    19.4561 -21.5039 v
    14.3359 -20.4805 v
    0 0 z
  EndSpiro
EndSplineSet
Validated: 1
EndChar

StartChar: B
Encoding: 66 66 1
Width: 416
Flags: HW
LayerCount: 2
Fore
SplineSet
267 92 m 0
 301 101 346 135 353 153 c 0
 357 164 359 177 359 190 c 0
 359 210 355 231 347 240 c 0
 321 273 256 295 190 295 c 0
 185 295 180 295 175 295 c 0
 160 294 146 293 136 293 c 0
 104 293 96 299 96 312 c 0
 96 326 122 354 141 359 c 0
 147 361 169 378 188 395 c 0
 228 433 251 474 251 507 c 0
 251 521 247 535 238 545 c 0
 227 558 205 565 179 565 c 0
 161 565 140 561 118 554 c 0
 75 540 62 536 62 499 c 0
 62 483 65 459 69 424 c 0
 82 307 109 142 115 135 c 0
 119 132 124 134 128 140 c 0
 132 145 136 148 139 148 c 0
 145 148 151 139 151 123 c 0
 151 103 158 93 177 89 c 0
 186 87 199 85 212 85 c 0
 231 85 253 88 267 92 c 0
101 6 m 0
 98 14 91 51 87 87 c 0
 82 123 71 193 63 242 c 0
 45 358 26 509 26 544 c 0
 26 547 27 549 27 550 c 0
 31 560 61 575 112 593 c 0
 134 600 155 604 173 604 c 0
 238 604 285 566 285 510 c 0
 285 502 284 493 282 485 c 0
 278 470 272 451 268 444 c 0
 251 410 229 381 220 378 c 0
 210 375 194 353 194 344 c 0
 194 343 194 342 195 341 c 0
 197 339 212 336 229 333 c 0
 297 325 369 282 386 240 c 0
 392 225 395 208 395 193 c 0
 395 160 383 130 360 108 c 0
 314 65 297 57 230 57 c 0
 179 57 167 60 147 72 c 0
 135 79 124 84 123 83 c 0
 122 82 122 81 122 79 c 0
 122 73 124 61 126 49 c 0
 130 29 132 15 132 6 c 0
 132 -6 128 -10 120 -10 c 0
 113 -10 105 -5 101 6 c 0
EndSplineSet
Validated: 1
EndChar

StartChar: C
Encoding: 67 67 2
Width: 428
Flags: HW
LayerCount: 2
Fore
SplineSet
165 19 m 0
 117 43 53 115 34 168 c 0
 22 200 16 234 16 271 c 0
 16 434 124 621 242 621 c 0
 276 621 288 610 288 581 c 0
 288 567 283 559 273 559 c 0
 267 559 259 562 247 567 c 0
 241 570 233 571 226 571 c 0
 202 571 176 554 142 515 c 0
 86 453 60 379 60 279 c 0
 60 210 63 198 81 163 c 0
 92 143 110 117 120 108 c 0
 145 85 213 51 237 51 c 0
 262 51 325 87 335 106 c 0
 339 114 349 121 356 121 c 0
 363 121 374 125 379 130 c 0
 382 133 385 134 388 134 c 0
 399 134 412 119 412 101 c 0
 412 85 367 51 297 18 c 0
 281 10 256 6 232 6 c 0
 206 6 182 10 165 19 c 0
EndSplineSet
Validated: 1
EndChar

StartChar: D
Encoding: 68 68 3
Width: 534
Flags: HW
LayerCount: 2
Fore
SplineSet
266 57 m 0
 323 70 375 101 415 143 c 0
 452 182 469 226 469 273 c 0
 469 335 437 402 375 472 c 0
 338 513 318 529 282 542 c 0
 244 556 199 564 159 564 c 0
 136 564 114 561 97 556 c 2
 62 546 l 1
 65 503 l 2
 66 479 74 437 82 406 c 0
 111 301 145 160 150 117 c 0
 156 67 167 47 203 47 c 0
 218 47 239 51 266 57 c 0
123 9 m 0
 119 14 111 54 106 99 c 0
 101 144 80 252 57 340 c 0
 32 439 16 518 15 550 c 2
 14 601 l 1
 51 602 l 2
 71 602 104 607 123 612 c 0
 135 615 146 618 157 618 c 0
 173 618 192 614 227 606 c 0
 302 588 357 558 394 517 c 0
 473 430 508 365 514 290 c 0
 515 278 516 267 516 259 c 0
 516 234 511 221 495 187 c 0
 482 159 456 122 441 106 c 0
 407 71 322 28 267 16 c 0
 229 8 188 4 159 4 c 0
 140 4 126 5 123 9 c 0
EndSplineSet
Validated: 1
EndChar

StartChar: E
Encoding: 69 69 4
Width: 419
Flags: HW
LayerCount: 2
Fore
SplineSet
54 16 m 0
 45 33 29 184 20 352 c 0
 16 434 13 482 13 512 c 0
 13 549 18 554 26 557 c 0
 32 559 42 565 48 570 c 0
 54 575 76 581 99 583 c 0
 194 591 280 601 336 610 c 0
 362 614 384 617 395 617 c 0
 398 617 401 617 402 616 c 0
 406 614 409 605 409 596 c 0
 409 584 404 578 390 575 c 0
 380 573 366 570 361 568 c 0
 350 564 341 563 211 552 c 0
 161 548 117 543 113 541 c 0
 109 539 95 534 82 532 c 2
 57 528 l 1
 56 449 l 2
 56 437 55 424 55 414 c 0
 55 387 56 370 57 370 c 0
 59 370 69 374 77 379 c 0
 99 392 141 400 176 400 c 0
 185 400 195 400 202 399 c 0
 233 393 234 391 234 373 c 0
 234 354 234 352 201 351 c 0
 152 350 95 342 91 335 c 0
 89 332 82 329 74 329 c 0
 65 329 61 328 61 302 c 0
 61 289 62 270 63 239 c 0
 68 125 78 67 92 67 c 0
 93 67 93 68 94 68 c 0
 100 70 134 76 170 81 c 0
 206 86 252 96 275 101 c 0
 289 105 302 106 310 106 c 0
 326 106 333 100 333 86 c 0
 333 84 333 81 333 79 c 0
 331 67 323 60 303 53 c 0
 288 48 266 43 255 43 c 0
 222 43 131 24 109 13 c 0
 97 7 86 3 77 3 c 0
 67 3 59 7 54 16 c 0
EndSplineSet
Validated: 1
EndChar

StartChar: F
Encoding: 70 70 5
Width: 332
Flags: HW
LayerCount: 2
Fore
SplineSet
6 557 m 0
 6 579 14 583 71 599 c 0
 104 608 253 627 291 627 c 0
 296 627 299 627 300 626 c 0
 305 623 307 614 307 605 c 0
 307 595 304 585 298 581 c 0
 293 578 280 575 268 574 c 0
 171 569 69 556 43 547 c 0
 26 541 17 538 12 538 c 0
 7 538 6 541 6 549 c 0
 6 551 6 554 6 557 c 0
105 17 m 0
 97 24 92 49 86 112 c 0
 77 208 63 324 59 348 c 0
 57 356 51 365 43 367 c 0
 34 369 29 378 29 387 c 0
 29 394 32 402 39 406 c 0
 46 410 50 427 51 468 c 0
 53 520 56 525 69 527 c 0
 71 527 72 528 73 528 c 0
 82 528 84 520 87 482 c 0
 89 456 93 432 97 428 c 0
 98 427 104 426 110 426 c 0
 120 426 137 428 157 432 c 0
 186 438 229 443 255 443 c 0
 293 443 300 442 300 432 c 0
 300 430 299 427 299 424 c 0
 297 407 293 404 251 396 c 0
 225 391 185 386 159 384 c 0
 133 382 109 378 105 374 c 0
 103 372 102 365 102 354 c 0
 102 323 110 254 126 124 c 0
 131 81 134 56 134 42 c 0
 134 29 132 22 128 18 c 0
 120 10 114 10 105 17 c 0
EndSplineSet
Validated: 1
EndChar

StartChar: G
Encoding: 71 71 6
Width: 458
Flags: HW
LayerCount: 2
Fore
SplineSet
122 22 m 0
 84 42 70 58 46 110 c 0
 28 151 22 174 19 244 c 0
 19 255 18 266 18 276 c 0
 18 392 45 468 111 544 c 0
 154 594 200 623 236 623 c 0
 260 623 272 611 272 593 c 0
 272 587 271 580 269 574 c 0
 266 563 261 560 239 560 c 0
 236 560 231 560 227 560 c 0
 223 560 220 560 217 560 c 0
 190 560 183 555 145 514 c 0
 97 463 71 399 62 310 c 0
 61 300 60 289 60 279 c 0
 60 197 90 105 127 78 c 0
 139 70 154 66 170 66 c 0
 240 66 338 132 371 212 c 0
 383 241 389 283 389 316 c 0
 389 341 386 359 378 362 c 0
 376 363 372 364 367 364 c 0
 344 364 300 354 288 346 c 0
 279 339 235 330 215 330 c 0
 211 330 207 331 206 332 c 0
 204 334 204 347 207 361 c 0
 213 389 224 394 346 422 c 0
 369 427 385 430 397 430 c 0
 424 430 429 415 435 371 c 0
 436 361 437 350 437 340 c 0
 437 281 421 211 392 158 c 0
 360 96 347 84 264 40 c 0
 223 18 195 8 169 8 c 0
 153 8 137 14 122 22 c 0
EndSplineSet
Validated: 1
EndChar

StartChar: H
Encoding: 72 72 7
Width: 325
Flags: HW
LayerCount: 2
Fore
SplineSet
52 19 m 0
 29 63 18 203 18 445 c 0
 18 559 20 564 32 564 c 0
 44 564 45 558 48 452 c 2
 51 340 l 1
 75 341 l 2
 87 341 124 345 157 349 c 0
 190 353 222 358 229 359 c 0
 255 361 258 369 262 454 c 0
 268 566 279 616 296 616 c 0
 304 616 308 613 308 594 c 0
 308 579 306 552 301 508 c 0
 298 480 296 446 296 402 c 0
 296 348 298 277 303 177 c 0
 305 144 305 123 305 109 c 0
 305 84 302 79 296 77 c 0
 289 74 280 77 274 83 c 0
 267 90 264 100 264 133 c 0
 264 140 265 149 265 158 c 0
 265 165 265 173 265 181 c 0
 265 212 264 248 262 267 c 2
 258 312 l 1
 187 307 l 2
 107 302 61 293 56 280 c 0
 55 278 55 272 55 265 c 0
 55 220 70 96 78 80 c 0
 84 68 87 54 87 42 c 0
 87 32 85 22 81 14 c 0
 77 6 73 2 69 2 c 0
 64 2 58 8 52 19 c 0
EndSplineSet
Validated: 1
EndChar

StartChar: I
Encoding: 73 73 8
Width: 544
Flags: HW
LayerCount: 2
Fore
SplineSet
23 15 m 0
 21 18 20 22 20 25 c 0
 20 37 39 47 80 57 c 0
 109 64 150 70 172 70 c 0
 227 70 236 80 236 153 c 0
 236 249 209 361 154 497 c 0
 151 506 141 509 126 509 c 0
 112 509 94 505 72 498 c 0
 57 493 42 489 34 489 c 0
 32 489 30 489 29 489 c 0
 23 491 18 500 18 507 c 0
 18 516 24 528 33 536 c 0
 48 549 161 566 224 566 c 0
 232 566 239 566 245 565 c 0
 249 565 253 565 257 565 c 0
 303 565 360 585 370 608 c 0
 374 618 381 624 387 624 c 0
 395 624 404 615 409 600 c 0
 411 595 412 591 412 587 c 0
 412 552 358 525 270 518 c 2
 208 514 l 1
 209 490 l 2
 209 478 215 455 220 440 c 0
 269 309 282 247 282 139 c 0
 282 110 285 85 288 83 c 0
 290 82 294 82 300 82 c 0
 333 82 416 97 461 112 c 0
 490 122 505 126 515 126 c 0
 521 126 525 124 528 121 c 0
 534 115 538 104 535 95 c 0
 524 59 418 33 262 27 c 0
 207 25 136 19 105 15 c 0
 69 11 51 9 40 9 c 0
 29 9 26 11 23 15 c 0
EndSplineSet
Validated: 1
EndChar

StartChar: J
Encoding: 74 74 9
Width: 323
Flags: HW
LayerCount: 2
Fore
SplineSet
90 18 m 0
 49 34 27 53 15 83 c 0
 9 97 6 113 6 127 c 0
 6 152 16 172 30 172 c 0
 37 172 40 164 40 145 c 0
 40 82 67 56 146 48 c 0
 154 47 162 46 169 46 c 0
 231 46 264 80 273 151 c 0
 274 158 275 165 275 171 c 0
 275 190 270 209 256 249 c 0
 233 312 200 384 171 429 c 0
 144 471 117 555 117 590 c 0
 117 594 117 597 118 599 c 0
 121 611 127 617 133 617 c 0
 140 617 149 609 152 592 c 0
 157 563 167 525 175 506 c 0
 178 499 184 482 189 470 c 0
 194 458 205 436 214 423 c 0
 268 343 310 231 310 164 c 0
 310 67 248 3 164 3 c 0
 140 3 116 8 90 18 c 0
EndSplineSet
Validated: 1
EndChar

StartChar: K
Encoding: 75 75 10
Width: 529
Flags: HW
LayerCount: 2
Fore
SplineSet
90 8 m 0
 75 16 75 22 73 110 c 0
 72 186 66 222 46 315 c 0
 7 494 0 532 0 565 c 0
 0 594 2 596 17 596 c 0
 32 596 35 593 35 570 c 0
 35 517 65 390 76 390 c 0
 78 390 87 394 96 399 c 0
 162 434 185 450 199 467 c 0
 208 478 229 494 244 502 c 0
 259 510 281 523 290 532 c 0
 324 564 354 587 377 596 c 0
 389 601 399 608 399 611 c 0
 399 614 409 617 420 617 c 0
 439 617 452 606 452 593 c 0
 452 587 448 581 443 575 c 0
 437 568 428 562 424 562 c 0
 420 562 410 557 404 550 c 0
 398 543 381 533 367 529 c 0
 337 520 304 490 279 452 c 0
 264 427 231 404 214 404 c 0
 210 404 187 394 162 383 c 0
 132 370 118 358 118 351 c 0
 118 340 158 304 219 264 c 0
 259 237 256 240 372 170 c 0
 475 108 508 84 508 61 c 0
 508 58 507 54 506 51 c 0
 503 44 496 41 489 41 c 0
 479 41 465 47 454 59 c 0
 422 92 413 100 321 154 c 0
 190 232 159 251 135 271 c 0
 107 295 95 306 91 306 c 0
 90 306 89 304 89 302 c 0
 89 298 90 291 92 281 c 0
 109 171 119 92 119 47 c 0
 119 21 117 6 111 3 c 0
 109 1 98 4 90 8 c 0
EndSplineSet
Validated: 1
EndChar

StartChar: L
Encoding: 76 76 11
Width: 363
Flags: HW
LayerCount: 2
Fore
SplineSet
40 7 m 0
 33 9 26 17 24 24 c 0
 20 36 17 257 17 426 c 0
 17 530 18 615 20 617 c 0
 23 620 30 620 36 618 c 0
 50 613 56 506 56 263 c 0
 56 253 56 243 56 234 c 0
 56 81 57 55 87 55 c 0
 94 55 104 56 115 58 c 0
 134 61 174 66 203 67 c 0
 232 68 255 69 255 70 c 0
 255 71 271 72 290 73 c 0
 293 73 295 74 298 74 c 0
 328 74 345 62 345 47 c 0
 345 43 344 38 341 33 c 0
 332 16 318 11 261 11 c 0
 253 11 242 11 232 11 c 0
 226 11 220 11 214 11 c 0
 179 11 135 10 109 8 c 0
 92 7 74 6 61 6 c 0
 51 6 43 6 40 7 c 0
EndSplineSet
Validated: 1
EndChar

StartChar: M
Encoding: 77 77 12
Width: 480
Flags: HW
LayerCount: 2
Fore
SplineSet
48 10 m 0
 26 26 19 82 16 261 c 0
 14 357 8 451 4 468 c 0
 1 479 0 489 0 495 c 0
 0 501 1 504 4 507 c 0
 7 510 11 511 16 511 c 0
 27 511 42 504 45 493 c 0
 58 450 75 412 88 394 c 0
 105 369 174 317 193 314 c 0
 194 314 195 314 196 314 c 0
 216 314 245 357 307 480 c 0
 340 545 371 601 375 606 c 0
 380 612 385 615 389 615 c 0
 397 615 405 605 409 588 c 0
 418 552 455 235 455 191 c 0
 455 190 455 157 462 113 c 0
 464 100 465 87 465 77 c 0
 465 51 456 38 442 38 c 0
 425 38 420 64 415 162 c 0
 410 271 380 506 372 506 c 0
 369 506 344 462 317 409 c 0
 265 306 235 260 211 253 c 0
 210 253 208 252 206 252 c 0
 195 252 177 263 146 283 c 0
 118 301 90 323 83 331 c 0
 76 339 64 345 58 345 c 0
 52 345 50 310 50 266 c 0
 50 194 58 97 68 68 c 0
 75 48 79 29 79 18 c 0
 79 7 75 1 68 1 c 0
 63 1 56 4 48 10 c 0
EndSplineSet
Validated: 1
EndChar

StartChar: N
Encoding: 78 78 13
Width: 523
Flags: HW
LayerCount: 2
Fore
SplineSet
37 11 m 0
 26 23 23 38 23 141 c 0
 23 163 23 188 23 219 c 0
 24 324 27 427 31 447 c 0
 37 481 40 485 63 487 c 0
 66 487 69 487 72 487 c 0
 86 487 92 482 103 456 c 0
 121 414 235 246 288 180 c 0
 323 137 409 68 425 68 c 0
 426 68 427 69 427 69 c 2
 432 74 449 356 452 486 c 0
 454 604 454 612 466 612 c 0
 468 612 470 612 473 612 c 0
 496 612 504 599 504 547 c 0
 504 523 502 494 499 453 c 0
 494 384 486 262 482 182 c 0
 476 53 471 1 439 1 c 0
 417 1 385 25 332 66 c 0
 290 98 236 158 205 206 c 0
 143 304 82 389 76 389 c 0
 66 389 60 318 60 240 c 0
 60 162 66 77 76 61 c 0
 80 55 82 47 82 38 c 0
 82 21 74 3 63 -1 c 0
 57 -3 45 2 37 11 c 0
EndSplineSet
Validated: 1
EndChar

StartChar: O
Encoding: 79 79 14
Width: 560
Flags: HW
LayerCount: 2
Fore
SplineSet
357 77 m 0
 448 124 493 194 493 293 c 0
 493 303 491 314 490 325 c 0
 480 445 423 535 340 563 c 0
 323 569 298 571 271 571 c 0
 223 571 170 562 156 548 c 0
 149 541 144 537 144 535 c 0
 144 532 151 530 165 530 c 0
 179 530 198 523 205 515 c 0
 211 508 213 501 213 495 c 0
 213 481 198 469 173 469 c 0
 143 469 139 462 109 399 c 0
 84 346 75 312 72 256 c 2
 68 181 l 1
 108 141 l 2
 162 87 224 58 281 58 c 0
 308 58 332 65 357 77 c 0
189 18 m 0
 129 42 66 94 40 144 c 0
 25 174 16 207 16 245 c 0
 16 286 27 332 45 385 c 0
 59 425 71 473 71 490 c 0
 71 578 129 624 246 624 c 0
 332 624 392 600 446 546 c 0
 502 490 526 429 532 314 c 0
 533 288 535 268 535 253 c 0
 535 214 529 199 512 165 c 0
 485 113 440 66 386 32 c 0
 362 18 307 9 259 9 c 0
 231 9 205 12 189 18 c 0
EndSplineSet
Validated: 1
EndChar

StartChar: P
Encoding: 80 80 15
Width: 338
Flags: HW
LayerCount: 2
Fore
SplineSet
172 285 m 0
 233 303 272 348 272 394 c 0
 272 403 271 412 268 421 c 0
 245 487 152 557 100 557 c 0
 92 557 85 555 79 551 c 0
 73 547 70 496 70 440 c 0
 70 389 73 335 78 306 c 2
 86 264 l 1
 114 269 l 2
 129 272 156 280 172 285 c 0
77 13 m 0
 73 22 69 58 66 91 c 0
 63 124 53 178 45 211 c 0
 37 245 31 298 31 332 c 0
 31 366 27 431 22 479 c 2
 12 566 l 1
 39 588 l 2
 57 603 77 611 101 611 c 0
 127 611 154 602 185 584 c 0
 210 570 239 547 250 534 c 0
 285 494 319 426 319 399 c 0
 319 365 293 311 264 287 c 0
 232 260 170 233 123 227 c 0
 101 224 84 220 84 217 c 0
 84 213 99 154 99 153 c 0
 109 114 114 83 114 58 c 0
 114 41 113 27 108 15 c 0
 103 3 96 -3 91 -3 c 0
 86 -3 81 2 77 13 c 0
EndSplineSet
Validated: 1
EndChar

StartChar: Q
Encoding: 81 81 16
Width: 514
Flags: HW
LayerCount: 2
Fore
SplineSet
217 65 m 0
 258 85 288 111 288 125 c 0
 288 134 238 183 237 184 c 0
 209 212 179 248 171 263 c 0
 163 278 152 294 148 297 c 0
 143 300 141 308 141 316 c 0
 141 324 143 332 148 335 c 0
 151 337 156 338 159 338 c 0
 173 338 190 323 209 291 c 0
 243 237 294 180 309 180 c 0
 310 180 310 181 311 181 c 0
 315 184 318 197 318 214 c 0
 318 246 311 295 300 328 c 0
 293 350 273 386 258 411 c 0
 235 446 223 458 193 471 c 0
 175 479 162 482 153 482 c 0
 147 482 141 481 135 478 c 0
 123 473 119 470 119 458 c 0
 119 453 120 445 121 437 c 0
 122 430 122 425 122 419 c 0
 122 400 118 386 110 386 c 0
 108 386 106 387 104 388 c 0
 103 389 101 389 99 389 c 0
 86 389 70 361 62 322 c 0
 59 306 57 286 57 267 c 0
 57 181 88 76 125 57 c 0
 137 50 149 47 161 47 c 0
 176 47 193 53 217 65 c 0
446 -85 m 0
 444 -83 444 -77 444 -70 c 0
 444 -64 445 -57 446 -50 c 0
 447 -46 447 -42 447 -38 c 0
 447 -22 436 -9 394 37 c 0
 393 38 338 99 333 99 c 0
 330 99 309 81 287 61 c 0
 244 20 198 1 157 1 c 0
 117 1 82 20 59 58 c 0
 32 103 18 175 18 252 c 0
 18 260 18 268 18 276 c 0
 21 342 24 356 46 397 c 0
 59 423 73 453 75 464 c 0
 82 501 104 518 146 522 c 0
 151 522 156 523 161 523 c 0
 221 523 265 484 308 394 c 0
 336 336 356 252 356 209 c 0
 356 196 355 186 351 182 c 0
 345 176 342 170 342 163 c 0
 342 150 352 136 369 124 c 0
 383 114 405 95 415 82 c 0
 425 69 447 44 462 27 c 0
 489 -2 497 -19 497 -46 c 0
 497 -51 497 -56 496 -62 c 0
 494 -84 490 -89 473 -91 c 0
 462 -92 449 -90 446 -85 c 0
EndSplineSet
Validated: 1
EndChar

StartChar: R
Encoding: 82 82 17
Width: 550
Flags: HW
LayerCount: 2
Fore
SplineSet
145 432 m 0
 194 478 219 514 219 538 c 0
 219 543 218 548 215 552 c 0
 211 559 195 562 176 562 c 0
 146 562 108 555 88 543 c 0
 65 530 58 524 58 507 c 0
 58 500 59 491 61 479 c 0
 64 455 68 420 68 403 c 0
 68 386 71 372 75 372 c 0
 79 372 110 399 145 432 c 0
93 9 m 0
 84 23 44 233 25 369 c 0
 17 426 11 466 11 496 c 0
 11 543 23 562 50 584 c 0
 79 607 96 612 145 615 c 0
 154 616 163 616 171 616 c 0
 237 616 271 595 275 552 c 0
 275 548 275 545 275 541 c 0
 275 494 250 452 191 400 c 0
 158 371 129 340 125 330 c 0
 123 324 122 317 122 311 c 0
 122 279 151 245 201 218 c 0
 214 211 232 197 241 186 c 0
 258 166 377 111 470 82 c 0
 522 66 540 55 540 36 c 0
 540 32 539 27 538 22 c 0
 535 9 530 3 517 3 c 0
 510 3 501 4 488 6 c 0
 464 9 434 22 422 32 c 0
 410 42 391 49 383 49 c 0
 361 49 256 99 206 134 c 0
 182 149 161 163 157 163 c 0
 153 163 141 171 132 179 c 0
 123 187 113 192 110 189 c 0
 109 188 109 187 109 184 c 0
 109 172 114 142 121 108 c 0
 128 73 132 52 132 39 c 0
 132 28 129 21 125 16 c 0
 117 7 109 2 103 2 c 0
 99 2 96 5 93 9 c 0
EndSplineSet
Validated: 1
EndChar

StartChar: S
Encoding: 83 83 18
Width: 449
Flags: HW
LayerCount: 2
Fore
SplineSet
117 14 m 0
 68 30 65 32 65 58 c 0
 65 94 73 113 87 113 c 0
 94 113 98 103 98 89 c 0
 98 59 128 42 178 42 c 0
 179 42 181 42 182 42 c 0
 247 43 339 99 365 152 c 0
 371 165 375 172 375 178 c 0
 375 185 369 192 359 202 c 0
 349 213 337 222 332 222 c 0
 321 222 226 260 219 267 c 0
 216 270 207 272 199 272 c 0
 191 272 176 277 168 281 c 0
 160 285 140 294 124 301 c 0
 108 308 77 329 58 347 c 0
 24 378 23 381 23 427 c 0
 23 482 38 524 97 571 c 0
 129 597 181 614 214 614 c 0
 224 614 234 612 239 608 c 0
 246 602 250 590 249 581 c 0
 247 567 241 562 217 562 c 0
 165 561 135 550 104 518 c 0
 80 493 70 465 70 437 c 0
 70 423 73 410 80 398 c 0
 94 373 196 320 293 285 c 0
 328 273 373 253 392 242 c 0
 425 223 428 219 428 186 c 0
 428 150 410 69 263 14 c 0
 237 5 217 0 194 0 c 0
 170 0 146 5 117 14 c 0
EndSplineSet
Validated: 1
EndChar

StartChar: T
Encoding: 84 84 19
Width: 593
Flags: HW
LayerCount: 2
Fore
SplineSet
223 26 m 0
 215 39 210 46 210 52 c 0
 210 57 214 63 221 70 c 0
 230 80 233 91 233 139 c 0
 233 162 232 190 231 231 c 0
 229 310 227 400 227 436 c 0
 227 439 227 441 227 445 c 0
 227 495 224 501 209 501 c 0
 193 501 117 475 49 446 c 0
 30 438 17 434 10 434 c 0
 2 434 0 441 0 454 c 0
 0 481 20 492 111 524 c 0
 194 553 209 557 338 569 c 0
 436 578 476 583 492 596 c 0
 498 601 504 600 507 595 c 0
 509 592 517 590 528 590 c 0
 534 590 542 591 550 592 c 0
 559 593 566 594 572 594 c 0
 582 594 588 592 588 585 c 0
 588 579 585 570 579 557 c 0
 574 545 561 535 552 535 c 0
 543 535 528 531 520 527 c 0
 512 523 500 524 461 522 c 0
 302 513 282 509 273 485 c 0
 270 477 269 468 269 460 c 0
 269 456 269 453 270 450 c 0
 275 434 284 209 284 105 c 0
 284 76 281 -2 253 -2 c 0
 244 -2 234 8 223 26 c 0
EndSplineSet
Validated: 1
EndChar

StartChar: U
Encoding: 85 85 20
Width: 415
Flags: HW
LayerCount: 2
Fore
SplineSet
220 5 m 0
 141 28 56 170 28 329 c 0
 20 375 15 421 15 463 c 0
 15 546 30 610 56 614 c 0
 57 614 58 614 59 614 c 0
 73 614 82 601 82 577 c 0
 82 566 80 551 76 536 c 0
 69 508 66 477 66 444 c 0
 66 319 112 169 181 94 c 0
 205 68 215 63 244 63 c 0
 272 63 282 67 300 89 c 0
 312 103 324 124 326 134 c 0
 328 144 333 164 336 178 c 0
 339 192 343 241 345 287 c 0
 345 296 346 305 346 314 c 0
 346 392 332 471 309 516 c 0
 304 526 301 536 301 543 c 0
 301 555 310 564 327 573 c 0
 335 577 341 581 346 581 c 0
 356 581 360 569 367 534 c 0
 389 425 397 352 397 291 c 0
 397 252 393 217 386 181 c 0
 360 62 315 0 252 0 c 0
 242 0 231 2 220 5 c 0
EndSplineSet
Validated: 1
EndChar

StartChar: V
Encoding: 86 86 21
Width: 415
Flags: HW
LayerCount: 2
Fore
SplineSet
202 17 m 0
 171 48 129 131 109 202 c 0
 100 234 75 316 52 384 c 0
 25 466 12 521 12 553 c 0
 12 573 19 585 30 585 c 0
 42 585 51 573 58 548 c 0
 111 362 180 157 203 122 c 0
 212 109 219 101 225 101 c 0
 232 101 237 110 241 127 c 0
 244 141 253 175 260 202 c 0
 283 285 317 472 321 535 c 0
 325 589 326 596 348 604 c 0
 355 607 364 608 371 608 c 0
 378 608 385 606 391 603 c 0
 403 597 410 594 410 587 c 0
 410 581 405 572 397 557 c 0
 382 526 357 431 342 338 c 0
 336 301 320 215 306 148 c 0
 283 38 266 -6 240 -6 c 0
 229 -6 217 2 202 17 c 0
EndSplineSet
Validated: 1
EndChar

StartChar: W
Encoding: 87 87 22
Width: 464
Flags: HW
LayerCount: 2
Fore
SplineSet
134 14 m 0
 120 30 106 78 76 204 c 0
 63 259 47 321 42 339 c 0
 30 381 15 448 15 467 c 0
 15 476 23 481 31 481 c 0
 39 481 47 477 52 468 c 0
 56 461 66 423 75 384 c 0
 84 345 97 286 105 253 c 0
 113 220 125 168 132 138 c 0
 140 103 149 86 156 86 c 0
 165 86 173 112 181 163 c 0
 186 192 195 245 201 282 c 0
 207 319 211 367 211 392 c 0
 211 430 213 436 225 436 c 0
 242 436 252 426 264 388 c 0
 289 311 362 153 373 153 c 0
 374 154 380 255 385 377 c 0
 390 500 397 602 401 607 c 0
 406 613 411 616 416 616 c 0
 423 616 431 609 439 596 c 0
 445 586 447 579 447 572 c 0
 447 565 445 556 440 541 c 0
 431 515 427 464 425 321 c 0
 423 218 420 117 418 100 c 0
 415 75 407 62 397 62 c 0
 377 62 343 109 297 200 c 0
 297 201 247 300 242 300 c 0
 239 300 234 274 231 240 c 0
 224 149 197 34 180 12 c 0
 175 5 168 2 160 2 c 0
 151 2 141 6 134 14 c 0
EndSplineSet
Validated: 1
EndChar

StartChar: X
Encoding: 88 88 23
Width: 410
Flags: HW
LayerCount: 2
Fore
SplineSet
365 -3 m 0
 361 0 346 19 334 38 c 0
 291 105 202 220 194 220 c 0
 190 220 181 209 175 195 c 0
 169 181 158 155 151 139 c 0
 144 123 138 102 138 91 c 0
 138 80 133 58 126 42 c 0
 117 20 111 15 99 15 c 0
 97 15 95 15 92 15 c 0
 76 17 72 22 73 34 c 0
 77 75 90 119 121 182 c 0
 139 220 155 256 155 261 c 0
 155 272 122 323 82 371 c 0
 67 390 45 420 36 437 c 0
 27 454 15 474 10 481 c 0
 7 486 5 495 5 502 c 0
 5 518 13 537 23 537 c 0
 29 537 52 507 72 471 c 0
 122 385 176 316 190 316 c 0
 193 316 194 319 194 323 c 0
 194 327 209 356 227 388 c 0
 245 420 278 481 301 524 c 0
 332 582 346 603 357 603 c 0
 363 603 376 602 376 579 c 0
 376 560 360 531 276 390 c 0
 252 351 230 307 225 293 c 0
 222 284 220 277 220 271 c 0
 220 260 227 251 251 224 c 0
 307 158 399 39 400 30 c 0
 401 26 401 21 401 17 c 0
 401 -1 394 -11 383 -11 c 0
 378 -11 372 -8 365 -3 c 0
EndSplineSet
Validated: 1
EndChar

StartChar: Y
Encoding: 89 89 24
Width: 286
Flags: HW
LayerCount: 2
Fore
SplineSet
134 6 m 0
 127 12 124 31 121 88 c 0
 119 129 114 187 109 216 c 0
 104 245 98 283 97 299 c 0
 96 327 93 330 73 343 c 0
 56 353 47 365 37 393 c 0
 24 427 8 543 8 589 c 0
 8 600 9 607 11 608 c 0
 13 609 14 609 16 609 c 0
 43 609 47 502 56 457 c 0
 65 408 105 385 139 385 c 0
 155 385 170 390 179 400 c 0
 190 412 220 517 220 543 c 0
 220 546 219 546 219 547 c 0
 219 558 249 622 256 626 c 0
 259 628 265 623 270 616 c 0
 274 611 275 605 275 599 c 0
 275 593 274 584 271 572 c 0
 267 555 261 539 259 536 c 0
 257 533 247 496 237 454 c 0
 223 395 214 372 200 356 c 0
 186 340 155 314 155 297 c 0
 155 295 160 272 173 144 c 0
 173 143 183 53 183 29 c 0
 183 10 168 5 154 5 c 0
 147 5 139 6 134 6 c 0
EndSplineSet
Validated: 1
EndChar

StartChar: Z
Encoding: 90 90 25
Width: 397
Flags: HW
LayerCount: 2
Fore
SplineSet
9 8 m 0
 8 11 7 15 7 19 c 0
 7 62 60 169 143 293 c 0
 222 411 260 485 260 524 c 0
 260 553 259 556 231 560 c 0
 227 561 222 561 216 561 c 0
 197 561 167 557 140 552 c 0
 98 544 74 539 62 539 c 0
 56 539 46 540 46 558 c 0
 46 578 71 591 129 602 c 0
 167 609 193 613 215 613 c 0
 238 613 255 608 273 600 c 0
 301 588 308 579 308 546 c 0
 308 538 308 528 307 516 c 0
 305 484 252 383 179 273 c 0
 144 220 104 155 91 129 c 0
 76 98 68 76 68 66 c 0
 68 63 69 60 71 60 c 0
 72 60 74 61 76 62 c 0
 82 65 159 68 234 68 c 0
 303 68 369 65 374 62 c 0
 379 59 383 51 383 44 c 0
 383 14 363 9 222 8 c 0
 147 8 70 4 50 1 c 0
 39 -1 31 -1 25 -1 c 0
 15 -1 12 1 9 8 c 0
EndSplineSet
Validated: 1
EndChar

StartChar: zero
Encoding: 48 48 26
Width: 419
Flags: HW
LayerCount: 2
Fore
SplineSet
314 115 m 0
 331 133 338 144 338 172 c 0
 338 182 338 196 336 213 c 0
 327 311 278 402 230 412 c 0
 223 414 216 415 209 415 c 0
 193 415 178 410 165 401 c 0
 149 391 122 382 106 382 c 0
 77 382 76 378 76 316 c 0
 76 192 169 86 250 86 c 0
 274 86 296 96 314 115 c 0
196 19 m 0
 136 37 68 100 29 174 c 0
 12 207 3 254 3 302 c 0
 3 352 14 403 32 441 c 2
 58 496 l 1
 160 492 l 2
 288 487 321 468 353 388 c 0
 354 386 410 245 410 176 c 0
 410 127 367 52 324 25 c 0
 300 11 284 4 266 4 c 0
 250 4 230 9 196 19 c 0
EndSplineSet
Validated: 1
EndChar

StartChar: one
Encoding: 49 49 27
Width: 153
Flags: HW
LayerCount: 2
Fore
SplineSet
92 18 m 0
 86 28 78 72 73 114 c 0
 68 156 51 249 36 323 c 0
 17 414 7 457 7 476 c 0
 7 492 14 493 26 493 c 0
 28 493 30 493 32 493 c 0
 58 493 59 490 71 433 c 0
 114 228 141 82 142 46 c 0
 142 42 142 38 142 34 c 0
 142 8 138 4 123 2 c 0
 121 2 119 1 118 1 c 0
 107 1 98 7 92 18 c 0
EndSplineSet
Validated: 1
EndChar

StartChar: two
Encoding: 50 50 28
Width: 372
Flags: HW
LayerCount: 2
Fore
SplineSet
293 -3 m 0
 289 11 277 19 248 23 c 0
 226 26 188 34 163 39 c 0
 123 48 118 51 118 73 c 0
 118 86 136 125 160 160 c 0
 200 219 220 268 220 308 c 0
 220 335 211 359 194 377 c 0
 176 396 156 406 137 406 c 0
 111 406 85 389 61 355 c 0
 46 333 31 323 20 323 c 0
 11 323 4 331 4 345 c 0
 4 350 5 358 7 365 c 0
 20 419 96 474 154 474 c 0
 206 474 280 386 280 326 c 0
 280 292 242 186 216 147 c 0
 206 131 200 120 200 113 c 0
 200 104 209 99 228 99 c 0
 236 99 248 100 260 101 c 0
 267 102 274 102 280 102 c 0
 302 102 320 98 336 90 c 0
 358 79 365 72 365 55 c 0
 365 52 364 48 364 44 c 0
 362 21 353 9 329 -4 c 0
 314 -13 306 -17 301 -17 c 0
 296 -17 296 -13 293 -3 c 0
EndSplineSet
Validated: 1
EndChar

StartChar: three
Encoding: 51 51 29
Width: 302
Flags: HW
LayerCount: 2
Fore
SplineSet
98 4 m 0
 74 8 49 56 49 91 c 0
 49 96 49 100 50 104 c 0
 56 127 90 154 109 154 c 0
 112 154 115 153 117 152 c 0
 121 149 123 141 123 128 c 0
 123 121 123 111 121 101 c 0
 119 87 117 77 117 71 c 0
 117 57 123 56 145 56 c 0
 194 56 227 75 227 105 c 0
 227 143 168 204 118 217 c 0
 86 225 75 235 70 255 c 0
 69 261 68 265 68 269 c 0
 68 280 73 288 87 297 c 0
 130 325 158 363 158 390 c 0
 158 400 153 409 145 414 c 0
 138 418 127 420 115 420 c 0
 93 420 67 413 55 402 c 0
 46 394 37 390 30 390 c 0
 16 390 5 403 5 428 c 0
 5 454 12 461 41 473 c 0
 68 484 91 489 113 489 c 0
 174 489 213 449 213 387 c 0
 213 364 207 338 196 310 c 0
 191 299 188 291 188 284 c 0
 188 272 197 263 224 237 c 0
 266 196 286 155 286 108 c 0
 286 100 286 91 285 83 c 0
 277 25 243 -2 180 -2 c 0
 178 -2 176 -2 174 -2 c 0
 145 -1 110 2 98 4 c 0
EndSplineSet
Validated: 1
EndChar

StartChar: four
Encoding: 52 52 30
Width: 366
Flags: HW
LayerCount: 2
Fore
SplineSet
293 22 m 0
 268 49 244 115 244 153 c 0
 244 180 229 206 217 206 c 0
 214 206 211 205 209 201 c 0
 201 188 129 171 90 171 c 0
 83 171 78 171 74 172 c 0
 36 181 17 235 11 357 c 0
 10 384 9 405 9 421 c 0
 9 457 14 470 23 479 c 0
 30 486 40 490 48 490 c 0
 50 490 52 490 54 489 c 0
 66 485 69 463 69 387 c 0
 69 334 74 281 80 270 c 0
 87 258 100 251 115 251 c 0
 125 251 139 254 150 260 c 0
 160 266 181 275 197 281 c 0
 215 287 221 293 221 304 c 0
 221 307 221 310 220 314 c 0
 217 326 211 369 207 408 c 0
 205 428 204 443 204 454 c 0
 204 473 207 482 214 486 c 0
 223 492 231 496 237 496 c 0
 248 496 255 486 258 463 c 0
 275 341 313 153 328 101 c 0
 340 62 346 38 346 24 c 0
 346 10 340 4 328 4 c 0
 318 4 302 12 293 22 c 0
EndSplineSet
Validated: 1
EndChar

StartChar: five
Encoding: 53 53 31
Width: 382
Flags: HW
LayerCount: 2
Fore
SplineSet
82 32 m 0
 70 48 66 63 66 81 c 0
 66 88 66 95 68 104 c 0
 72 127 80 146 86 146 c 0
 92 146 105 149 115 153 c 0
 117 154 118 154 120 154 c 0
 129 154 135 144 140 117 c 0
 146 86 155 74 171 74 c 0
 207 74 282 109 290 129 c 0
 291 131 291 133 291 135 c 0
 291 160 251 201 207 219 c 0
 195 224 184 227 175 227 c 0
 161 227 145 221 116 206 c 0
 88 192 70 185 57 185 c 0
 50 185 45 187 40 190 c 0
 17 204 6 254 6 306 c 0
 6 358 17 413 40 442 c 0
 68 477 88 492 118 492 c 0
 131 492 146 489 163 484 c 0
 230 466 245 453 245 419 c 0
 245 387 232 372 203 372 c 0
 193 372 181 374 167 378 c 0
 149 383 133 386 122 386 c 0
 96 386 87 372 87 341 c 2
 87 305 l 1
 164 312 l 2
 184 314 200 315 212 315 c 0
 243 315 256 308 281 290 c 0
 330 254 374 182 374 142 c 0
 374 138 374 134 373 131 c 0
 356 73 308 28 252 14 c 0
 215 5 186 0 161 0 c 0
 123 0 97 10 82 32 c 0
EndSplineSet
Validated: 1
EndChar

StartChar: six
Encoding: 54 54 32
Width: 313
Flags: HW
LayerCount: 2
Fore
SplineSet
232 97 m 0
 243 115 251 153 251 181 c 0
 251 194 249 206 246 212 c 0
 241 222 234 226 221 226 c 0
 216 226 210 225 202 224 c 0
 161 217 147 208 144 177 c 0
 143 165 142 149 141 142 c 0
 140 134 128 130 118 130 c 0
 109 130 100 134 100 140 c 0
 100 145 96 150 91 150 c 0
 84 150 81 146 81 140 c 0
 81 130 92 111 109 95 c 0
 126 79 137 73 157 73 c 0
 163 73 170 74 178 75 c 0
 207 78 225 85 232 97 c 0
135 5 m 0
 93 18 54 59 25 115 c 0
 9 147 3 163 3 195 c 0
 3 206 4 221 5 238 c 0
 13 358 76 493 124 493 c 0
 146 493 157 480 157 454 c 0
 157 446 156 437 154 427 c 0
 149 401 142 394 126 394 c 0
 94 394 70 336 65 248 c 0
 64 224 62 208 62 198 c 0
 62 190 63 185 65 185 c 0
 67 185 71 193 77 204 c 0
 100 244 134 282 151 286 c 0
 159 288 184 290 208 290 c 2
 209 290 l 2
 262 290 293 259 303 193 c 0
 304 184 304 175 304 167 c 0
 304 79 239 1 166 1 c 0
 156 1 145 2 135 5 c 0
EndSplineSet
Validated: 1
EndChar

StartChar: seven
Encoding: 55 55 33
Width: 393
Flags: HW
LayerCount: 2
Fore
SplineSet
196 25 m 0
 195 29 195 33 195 40 c 0
 195 84 214 184 230 214 c 0
 242 236 278 327 298 390 c 0
 301 400 299 413 291 418 c 0
 286 421 259 422 225 422 c 0
 162 422 75 418 66 412 c 0
 63 410 58 409 53 409 c 0
 34 409 6 423 6 437 c 0
 6 473 33 481 187 488 c 0
 237 490 271 493 295 493 c 0
 338 493 344 487 355 474 c 0
 363 465 370 457 370 442 c 0
 370 413 351 359 306 219 c 0
 275 125 251 39 251 30 c 0
 251 15 232 1 210 1 c 0
 206 1 199 12 196 25 c 0
EndSplineSet
Validated: 1
EndChar

StartChar: eight
Encoding: 56 56 34
Width: 328
Flags: HW
LayerCount: 2
Fore
SplineSet
191 274 m 0
 206 290 212 298 212 322 c 0
 212 330 211 340 210 353 c 0
 208 387 201 414 193 422 c 0
 187 428 183 430 178 430 c 0
 173 430 167 427 157 420 c 0
 145 412 129 396 124 384 c 0
 118 370 110 365 96 365 c 0
 93 365 91 365 88 365 c 0
 84 365 79 366 76 366 c 0
 62 366 60 360 58 336 c 0
 58 334 58 331 58 329 c 0
 58 282 96 250 136 250 c 0
 155 250 175 258 191 274 c 0
252 78 m 0
 262 89 267 107 267 124 c 0
 267 160 247 199 219 199 c 0
 218 199 198 197 165 186 c 0
 137 177 129 170 127 152 c 0
 126 146 126 139 126 134 c 0
 126 105 137 88 163 76 c 0
 181 67 199 61 213 61 c 0
 229 61 242 67 252 78 c 0
150 18 m 0
 127 27 98 45 86 58 c 0
 72 74 67 83 67 109 c 0
 67 118 68 128 69 142 c 0
 70 157 70 169 70 178 c 0
 70 206 64 212 38 240 c 0
 11 270 4 282 4 309 c 0
 4 376 30 415 73 415 c 0
 82 415 92 423 95 432 c 0
 103 458 150 493 177 493 c 0
 225 493 258 423 258 339 c 0
 258 319 256 297 252 275 c 0
 250 266 249 260 249 255 c 0
 249 245 254 242 268 239 c 0
 298 232 316 182 316 131 c 0
 316 108 312 85 304 65 c 0
 290 32 247 1 215 1 c 0
 214 1 214 1 213 1 c 0
 201 1 173 9 150 18 c 0
EndSplineSet
Validated: 1
EndChar

StartChar: nine
Encoding: 57 57 35
Width: 230
Flags: HW
LayerCount: 2
Fore
SplineSet
116 318 m 0
 135 333 137 341 137 388 c 0
 137 417 134 443 129 446 c 0
 127 447 125 449 123 449 c 0
 97 449 45 388 45 354 c 0
 45 340 77 301 88 301 c 0
 91 301 104 309 116 318 c 0
168 7 m 0
 165 10 163 28 163 46 c 0
 163 64 158 119 153 168 c 2
 142 257 l 1
 111 253 l 2
 105 252 98 252 93 252 c 0
 38 252 4 290 4 355 c 0
 4 377 9 407 16 421 c 0
 33 459 90 493 134 493 c 0
 187 493 192 482 194 353 c 0
 195 292 199 214 204 179 c 0
 209 139 213 97 213 65 c 0
 213 41 211 22 208 14 c 0
 205 6 193 1 183 1 c 0
 177 1 172 3 168 7 c 0
EndSplineSet
Validated: 1
EndChar

StartChar: colon
Encoding: 58 58 36
Width: 150
Flags: HW
LayerCount: 2
Fore
SplineSet
67 358 m 0
 51 359 49 361 49 378 c 0
 49 381 49 385 49 389 c 0
 49 420 59 434 83 437 c 0
 84 437 85 437 86 437 c 0
 102 437 110 423 110 400 c 0
 110 396 110 390 109 385 c 0
 106 364 102 357 83 357 c 0
 79 357 73 357 67 358 c 0
45 149 m 0
 40 161 38 168 38 174 c 0
 38 180 40 185 44 193 c 0
 51 207 58 211 72 211 c 0
 103 211 112 202 112 173 c 0
 112 142 98 122 73 122 c 0
 59 122 54 127 45 149 c 0
EndSplineSet
Validated: 1
EndChar

StartChar: semicolon
Encoding: 59 59 37
Width: 150
Flags: HW
LayerCount: 2
Fore
SplineSet
55 421 m 0
 53 425 48 430 43 430 c 0
 38 430 35 430 35 434 c 0
 35 437 37 444 40 454 c 0
 42 463 47 477 48 485 c 0
 49 492 57 501 64 504 c 0
 68 506 72 507 74 507 c 0
 80 507 83 503 91 496 c 0
 103 483 110 464 110 447 c 0
 110 438 108 428 103 423 c 0
 97 416 83 413 73 413 c 0
 64 413 56 416 55 421 c 0
71 126 m 0
 65 134 62 139 62 144 c 0
 62 149 65 152 72 154 c 0
 80 156 84 162 84 171 c 0
 84 187 71 228 58 252 c 0
 54 261 52 269 52 275 c 0
 52 284 56 291 65 291 c 0
 82 291 111 226 115 179 c 0
 116 168 117 158 117 149 c 0
 117 122 111 114 95 114 c 0
 85 114 76 119 71 126 c 0
EndSplineSet
EndChar

StartChar: less
Encoding: 60 60 38
Width: 478
Flags: HW
LayerCount: 2
Fore
SplineSet
354 52 m 0
 340 59 277 76 216 87 c 0
 83 112 17 140 17 173 c 0
 17 203 121 366 173 420 c 0
 228 476 306 529 333 529 c 0
 335 529 337 529 338 529 c 0
 350 524 355 515 355 504 c 0
 355 480 333 449 298 439 c 0
 249 425 104 246 104 205 c 0
 104 202 105 199 106 198 c 0
 128 176 240 146 339 136 c 0
 409 129 445 121 454 110 c 0
 462 101 466 94 466 87 c 0
 466 79 459 70 446 57 c 0
 434 45 418 38 402 38 c 0
 388 38 371 43 354 52 c 0
EndSplineSet
Validated: 1
EndChar

StartChar: equal
Encoding: 61 61 39
Width: 439
Flags: HW
LayerCount: 2
Fore
SplineSet
268 294 m 0
 251 299 190 305 134 306 c 0
 34 308 33 308 33 335 c 0
 33 361 37 362 129 374 c 0
 173 380 210 382 240 382 c 0
 297 382 328 372 333 350 c 0
 335 343 336 337 336 330 c 0
 336 305 325 283 313 283 c 2
 312 283 l 2
 305 283 285 289 268 294 c 0
33 112 m 0
 31 115 30 122 30 129 c 0
 30 135 30 142 32 148 c 0
 39 176 69 184 185 191 c 0
 251 195 311 209 341 225 c 0
 348 229 363 231 377 231 c 0
 382 231 387 231 391 230 c 0
 415 227 423 220 423 204 c 0
 423 154 389 141 216 118 c 0
 135 108 92 101 66 101 c 0
 44 101 37 105 33 112 c 0
EndSplineSet
Validated: 1
EndChar

StartChar: greater
Encoding: 62 62 40
Width: 471
Flags: HW
LayerCount: 2
Fore
SplineSet
117 11 m 0
 109 14 104 24 104 34 c 0
 104 50 114 71 130 81 c 0
 171 108 391 335 391 350 c 0
 391 365 340 385 304 385 c 0
 298 385 293 384 288 383 c 0
 286 382 283 382 280 382 c 0
 245 382 153 409 145 423 c 0
 142 427 125 431 108 431 c 0
 90 431 59 435 40 440 c 0
 14 447 9 452 9 466 c 0
 9 468 9 471 9 474 c 2
 12 498 l 1
 101 497 l 2
 199 497 274 486 274 474 c 0
 274 470 281 467 288 467 c 0
 295 467 312 461 326 454 c 0
 339 447 366 438 383 435 c 0
 401 433 427 422 440 412 c 0
 455 400 462 392 462 375 c 0
 462 370 461 362 460 354 c 0
 455 312 423 273 289 147 c 0
 254 115 211 71 193 47 c 0
 169 18 154 6 137 6 c 0
 131 6 124 8 117 11 c 0
EndSplineSet
Validated: 1
EndChar

StartChar: question
Encoding: 63 63 41
Width: 318
Flags: HW
LayerCount: 2
Fore
SplineSet
191 117 m 0
 182 127 167 137 159 140 c 0
 151 143 133 156 119 168 c 0
 96 188 93 194 93 231 c 0
 93 269 96 275 128 311 c 0
 167 354 199 412 199 439 c 0
 199 464 182 475 143 479 c 0
 140 479 137 480 134 480 c 0
 96 480 51 458 39 432 c 0
 34 422 30 417 25 417 c 0
 16 417 11 436 11 444 c 0
 11 488 80 525 143 525 c 0
 161 525 180 522 195 516 c 0
 228 503 243 478 243 446 c 0
 243 406 218 353 169 292 c 0
 153 272 138 250 138 244 c 0
 138 232 172 196 184 196 c 0
 189 196 198 191 203 186 c 0
 208 181 221 171 232 163 c 0
 244 154 252 140 252 129 c 0
 252 120 247 110 238 105 c 0
 230 101 223 99 218 99 c 0
 210 99 202 105 191 117 c 0
247 -71 m 0
 241 -62 239 -55 239 -49 c 0
 239 -44 240 -39 243 -33 c 0
 249 -21 256 -15 266 -15 c 0
 271 -15 279 -16 286 -19 c 0
 294 -22 297 -32 297 -43 c 0
 297 -55 293 -70 284 -78 c 0
 276 -85 269 -89 265 -89 c 0
 260 -89 255 -83 247 -71 c 0
EndSplineSet
Validated: 1
EndChar

StartChar: at
Encoding: 64 64 42
Width: 449
Flags: HW
LayerCount: 2
Fore
SplineSet
216 214 m 0
 226 226 231 255 231 287 c 0
 231 340 218 401 199 401 c 0
 193 401 174 382 160 359 c 0
 136 321 125 285 125 254 c 0
 125 219 140 195 170 195 c 0
 185 195 206 203 216 214 c 0
234 78 m 0
 245 84 262 96 269 103 c 0
 276 110 293 124 306 132 c 0
 320 141 329 149 329 157 c 0
 329 164 321 173 309 185 c 2
 289 206 l 1
 254 166 l 2
 230 138 210 125 184 125 c 0
 168 125 151 130 128 139 c 0
 93 153 73 197 73 254 c 0
 73 322 119 403 165 417 c 0
 177 421 196 436 208 450 c 0
 218 462 228 468 236 468 c 0
 254 468 269 438 293 369 c 0
 308 324 325 289 331 289 c 0
 334 291 336 308 336 332 c 0
 336 373 332 432 325 466 c 0
 323 477 307 501 291 518 c 0
 267 543 252 549 222 549 c 0
 189 549 179 544 148 506 c 0
 103 452 58 353 50 291 c 0
 48 279 47 266 47 255 c 0
 47 155 104 67 176 67 c 0
 196 67 223 72 234 78 c 0
129 12 m 0
 45 42 0 124 0 248 c 0
 0 337 11 380 51 459 c 0
 86 528 133 582 176 602 c 0
 190 609 207 612 222 612 c 0
 279 612 340 571 372 502 c 0
 388 466 394 432 397 338 c 0
 400 262 406 214 414 205 c 0
 419 199 422 192 422 185 c 0
 422 168 405 145 365 105 c 0
 318 58 216 -2 183 -2 c 2
 182 -2 l 2
 174 -2 149 5 129 12 c 0
EndSplineSet
Validated: 1
EndChar

StartChar: bracketleft
Encoding: 91 91 43
Width: 455
Flags: HW
LayerCount: 2
Fore
SplineSet
86 9 m 0
 74 18 68 25 68 40 c 0
 68 46 69 53 70 62 c 0
 70 66 70 72 70 77 c 0
 70 109 62 172 47 255 c 0
 32 339 16 449 13 497 c 0
 11 525 9 544 9 558 c 0
 9 585 13 592 24 602 c 0
 33 610 39 613 46 613 c 0
 53 613 63 611 76 605 c 0
 108 592 180 583 231 583 c 0
 257 583 277 585 283 590 c 0
 288 594 297 597 303 597 c 0
 322 597 343 579 343 557 c 0
 343 556 343 554 343 553 c 2
 340 529 l 1
 212 533 l 1
 83 536 l 1
 84 486 l 2
 84 441 97 318 120 163 c 0
 125 130 129 96 129 89 c 0
 129 80 136 79 150 83 c 0
 211 102 342 122 394 122 c 0
 403 122 410 121 414 120 c 0
 428 115 439 94 439 77 c 0
 439 70 437 62 433 57 c 0
 422 42 376 30 343 30 c 0
 332 30 321 32 316 35 c 0
 311 38 304 39 294 39 c 0
 266 39 215 27 125 0 c 0
 123 -1 119 -1 116 -1 c 0
 106 -1 95 3 86 9 c 0
EndSplineSet
Validated: 1
EndChar

StartChar: bracketright
Encoding: 93 93 44
Width: 385
Flags: HW
LayerCount: 2
Fore
SplineSet
153 3 m 0
 114 6 78 10 72 14 c 0
 66 18 61 33 61 47 c 0
 61 61 66 74 72 74 c 0
 81 75 93 75 106 75 c 0
 140 75 185 73 224 69 c 0
 242 67 256 66 267 66 c 0
 295 66 304 72 304 98 c 0
 304 110 302 125 299 147 c 0
 295 181 291 214 291 226 c 0
 291 230 291 231 291 238 c 0
 291 273 280 396 270 473 c 0
 261 544 260 545 230 554 c 0
 219 558 206 560 188 560 c 0
 170 560 146 558 112 554 c 0
 81 551 59 549 43 549 c 0
 18 549 9 553 9 563 c 0
 9 568 12 575 15 583 c 0
 23 601 32 604 98 609 c 0
 142 612 174 614 199 614 c 0
 236 614 256 610 272 602 c 0
 317 578 319 571 333 348 c 0
 338 271 347 188 352 161 c 0
 357 134 361 93 362 69 c 0
 362 64 363 59 363 55 c 0
 363 28 359 23 342 15 c 0
 320 6 277 0 223 0 c 0
 201 0 178 1 153 3 c 0
EndSplineSet
Validated: 1
EndChar

StartChar: grave
Encoding: 96 96 45
Width: 128
Flags: HW
LayerCount: 2
Fore
SplineSet
61 590 m 0
 58 609 31 622 24 638 c 0
 15 658 6 671 6 679 c 0
 6 687 14 690 36 692 c 0
 37 692 37 692 38 692 c 0
 49 692 56 684 72 652 c 0
 80 636 99 621 107 611 c 0
 114 601 120 588 120 584 c 0
 120 572 118 562 99 562 c 0
 86 562 65 565 61 590 c 0
EndSplineSet
Validated: 1
EndChar

StartChar: a
Encoding: 97 97 46
Width: 253
Flags: HW
LayerCount: 2
Fore
SplineSet
124 47 m 0
 137 53 146 70 146 88 c 0
 146 91 146 93 146 96 c 0
 143 114 109 194 104 194 c 0
 94 194 56 154 44 129 c 0
 38 117 35 105 35 94 c 0
 35 62 58 39 90 39 c 0
 100 39 113 42 124 47 c 0
215 -55 m 0
 215 -46 180 27 174 31 c 0
 171 33 159 28 149 20 c 0
 131 7 109 0 90 0 c 0
 50 0 13 26 2 69 c 0
 1 74 0 80 0 87 c 0
 0 114 10 149 23 166 c 0
 28 173 38 188 45 198 c 0
 57 215 98 234 120 234 c 0
 123 234 126 234 128 233 c 0
 133 231 145 209 153 183 c 0
 161 157 175 126 183 112 c 0
 191 98 198 84 198 82 c 0
 198 80 210 57 224 31 c 0
 242 -2 251 -20 251 -35 c 0
 251 -41 250 -46 248 -51 c 0
 246 -57 234 -60 226 -60 c 0
 220 -60 215 -59 215 -55 c 0
EndSplineSet
EndChar

StartChar: underscore
Encoding: 95 95 47
Width: 618
Flags: HW
LayerCount: 2
Fore
SplineSet
5 -143 m 0
 3 -140 2 -137 2 -134 c 0
 2 -99 138 -74 363 -67 c 0
 508 -62 539 -59 555 -48 c 0
 566 -40 574 -35 580 -35 c 0
 589 -35 596 -43 605 -60 c 0
 612 -73 616 -83 616 -90 c 0
 616 -103 602 -108 569 -109 c 0
 303 -114 139 -125 59 -143 c 0
 39 -147 27 -151 19 -151 c 0
 11 -151 8 -148 5 -143 c 0
EndSplineSet
Validated: 1
EndChar

StartChar: b
Encoding: 98 98 48
Width: 264
Flags: HW
LayerCount: 2
Fore
SplineSet
191 54 m 0
 203 64 210 76 210 88 c 0
 210 104 200 123 178 148 c 0
 166 162 156 169 146 169 c 0
 141 169 136 167 129 164 c 0
 109 154 102 144 102 117 c 0
 102 112 102 105 102 99 c 0
 103 81 105 63 105 61 c 0
 106 49 125 40 148 40 c 0
 166 40 178 43 191 54 c 0
100 19 m 0
 74 39 56 81 51 126 c 0
 49 146 45 172 42 183 c 0
 34 215 12 337 12 353 c 0
 12 361 15 369 18 371 c 0
 20 372 23 373 25 373 c 0
 34 373 42 360 47 332 c 0
 59 267 71 210 74 197 c 0
 76 189 81 184 86 184 c 0
 90 184 95 188 99 193 c 0
 106 201 127 206 145 206 c 0
 150 206 157 206 161 205 c 0
 199 196 248 124 248 84 c 0
 248 81 248 79 248 77 c 0
 240 34 193 4 150 4 c 0
 133 4 113 8 100 19 c 0
EndSplineSet
EndChar

StartChar: c
Encoding: 99 99 49
Width: 230
Flags: HW
LayerCount: 2
Fore
SplineSet
158 5 m 0
 126 10 66 36 43 53 c 0
 17 72 5 95 5 122 c 0
 5 150 20 181 49 211 c 0
 72 235 90 246 116 253 c 0
 131 257 147 260 156 260 c 0
 158 260 160 259 161 259 c 0
 168 256 171 252 171 247 c 0
 171 236 157 223 140 223 c 0
 117 223 70 189 55 160 c 0
 48 148 45 136 45 127 c 0
 45 111 55 98 78 82 c 0
 104 64 111 61 159 61 c 0
 209 61 211 60 215 45 c 0
 217 36 216 23 212 15 c 0
 207 6 200 2 187 2 c 0
 180 2 171 3 158 5 c 0
EndSplineSet
EndChar

StartChar: d
Encoding: 100 100 50
Width: 193
Flags: HW
LayerCount: 2
Fore
SplineSet
120 61 m 0
 133 64 137 75 137 86 c 0
 137 97 134 110 133 119 c 0
 128 129 120 132 111 132 c 0
 100 132 85 128 75 127 c 0
 55 126 43 107 43 89 c 0
 43 86 43 83 44 80 c 0
 44 61 61 47 78 47 c 0
 83 47 88 48 93 50 c 0
 102 53 111 57 120 61 c 0
153 -24 m 0
 148 -11 141 8 127 8 c 0
 124 8 121 7 117 5 c 0
 106 3 93 2 82 2 c 0
 63 2 43 7 29 21 c 0
 12 37 2 61 1 87 c 0
 1 95 0 103 0 110 c 0
 0 137 5 157 31 169 c 0
 50 179 69 189 88 189 c 0
 89 189 91 189 92 189 c 0
 93 189 93 189 94 189 c 0
 105 189 109 195 109 204 c 0
 109 209 109 214 108 220 c 0
 105 244 91 273 89 307 c 0
 87 333 83 362 83 392 c 0
 83 411 84 433 89 449 c 0
 91 455 94 457 98 457 c 0
 107 457 119 441 119 430 c 0
 119 428 119 427 118 425 c 0
 122 385 123 346 136 308 c 1
 144 270 144 231 153 193 c 0
 163 137 182 81 189 24 c 0
 189 20 190 14 190 8 c 0
 190 -10 185 -31 167 -31 c 0
 166 -31 164 -31 163 -31 c 0
 159 -30 155 -27 153 -24 c 0
EndSplineSet
EndChar

StartChar: e
Encoding: 101 101 51
Width: 194
Flags: HW
LayerCount: 2
Fore
SplineSet
78 131 m 0
 112 141 124 153 124 168 c 0
 124 184 110 195 93 195 c 0
 90 195 88 195 85 194 c 0
 63 190 52 181 41 153 c 0
 37 144 35 136 35 131 c 0
 35 126 38 123 44 123 c 0
 51 123 63 126 78 131 c 0
50 10 m 0
 38 19 27 31 25 36 c 0
 23 41 16 57 10 69 c 0
 5 80 3 95 3 110 c 0
 3 151 21 198 49 216 c 0
 61 224 80 229 96 229 c 0
 108 229 119 227 124 221 c 0
 128 217 133 213 137 213 c 0
 151 213 162 192 162 168 c 0
 162 156 159 143 154 133 c 0
 144 114 96 90 66 90 c 0
 47 90 44 89 44 77 c 0
 44 61 67 37 83 37 c 0
 90 37 108 42 123 48 c 0
 140 54 155 57 165 57 c 0
 180 57 188 50 188 36 c 0
 188 25 176 19 126 8 c 0
 106 4 85 -1 81 -3 c 2
 81 -3 80 -3 79 -3 c 0
 74 -3 61 2 50 10 c 0
EndSplineSet
EndChar

StartChar: f
Encoding: 102 102 52
Width: 219
Flags: HW
LayerCount: 2
Fore
SplineSet
116 11 m 0
 114 18 114 26 116 28 c 0
 118 30 116 40 112 51 c 0
 108 62 99 86 94 104 c 0
 89 122 82 141 78 144 c 0
 75 147 66 147 56 147 c 0
 51 147 47 148 41 147 c 0
 35 146 29 146 25 146 c 0
 15 146 9 148 6 151 c 0
 3 154 2 158 2 161 c 0
 2 174 22 186 48 186 c 2
 62 186 l 1
 62 244 l 2
 62 305 66 317 95 352 c 0
 103 362 108 367 113 367 c 0
 117 367 121 363 129 360 c 0
 156 349 179 326 179 311 c 0
 179 301 175 296 169 296 c 0
 164 296 155 301 147 310 c 0
 138 320 130 325 123 325 c 0
 105 325 92 298 92 250 c 0
 92 193 97 189 156 189 c 0
 203 189 203 188 203 175 c 0
 203 158 174 140 147 140 c 0
 144 140 141 141 138 141 c 0
 118 144 118 144 121 132 c 0
 123 125 130 101 138 78 c 0
 146 55 151 37 151 24 c 0
 151 8 144 -2 132 -2 c 0
 123 -2 118 1 116 11 c 0
EndSplineSet
EndChar

StartChar: g
Encoding: 103 103 53
Width: 218
Flags: HW
LayerCount: 2
Fore
SplineSet
101 114 m 0
 103 117 105 123 105 131 c 0
 105 144 101 161 96 171 c 0
 94 175 90 177 86 177 c 0
 79 177 69 170 61 158 c 0
 55 149 52 140 52 134 c 0
 52 125 60 118 72 114 c 0
 83 110 88 108 92 108 c 0
 96 108 97 110 101 114 c 0
100 -146 m 0
 52 -128 8 -76 8 -40 c 0
 8 -37 8 -35 9 -32 c 0
 13 -15 20 -7 31 -7 c 0
 35 -7 37 -16 37 -34 c 0
 37 -66 49 -87 80 -109 c 0
 95 -119 115 -124 132 -124 c 0
 145 -124 159 -121 166 -114 c 0
 173 -108 175 -103 175 -91 c 0
 175 -86 175 -79 174 -70 c 0
 172 -46 165 -18 152 19 c 0
 141 49 130 78 129 81 c 0
 127 86 123 85 112 79 c 0
 104 75 88 72 78 72 c 0
 63 72 55 75 40 91 c 0
 27 104 23 110 23 121 c 0
 23 125 23 130 24 136 c 0
 28 171 51 201 83 210 c 0
 91 212 98 213 103 213 c 0
 117 213 124 204 130 182 c 0
 141 138 156 91 181 24 c 0
 197 -21 206 -53 206 -79 c 0
 206 -107 196 -126 176 -143 c 0
 166 -151 154 -156 141 -156 c 0
 130 -156 116 -152 100 -146 c 0
EndSplineSet
EndChar

StartChar: h
Encoding: 104 104 54
Width: 218
Flags: HW
LayerCount: 2
Fore
SplineSet
34 11 m 0
 31 15 28 51 26 91 c 0
 24 131 18 182 14 202 c 0
 10 222 6 269 5 306 c 2
 4 373 l 1
 4 373 6 379 15 381 c 0
 28 384 31 373 31 373 c 1
 34 303 l 2
 36 265 40 226 43 215 c 0
 46 204 49 188 49 181 c 2
 49 167 l 1
 67 185 l 2
 79 197 89 203 99 203 c 0
 119 203 178 174 187 160 c 0
 200 141 210 98 210 65 c 0
 210 60 210 54 209 49 c 0
 205 14 199 4 185 4 c 0
 177 4 176 12 174 65 c 0
 172 133 170 138 129 153 c 0
 115 158 105 161 98 161 c 0
 87 161 82 153 75 137 c 0
 68 121 65 108 65 77 c 0
 65 73 66 68 66 63 c 0
 66 58 66 53 66 49 c 0
 66 22 63 12 58 9 c 0
 48 3 40 3 34 11 c 0
EndSplineSet
EndChar

StartChar: i
Encoding: 105 105 55
Width: 125
Flags: HW
LayerCount: 2
Fore
SplineSet
5 326 m 0
 0 332 0 339 5 353 c 0
 10 367 14 373 28 373 c 0
 32 373 37 372 44 372 c 2
 44 372 79 368 79 365 c 0
 79 362 70 351 59 340 c 0
 45 325 32 317 21 317 c 0
 15 317 9 321 5 326 c 0
71 34 m 0
 59 63 53 105 52 202 c 0
 52 205 52 208 52 211 c 0
 52 236 54 236 67 236 c 0
 82 236 84 236 90 171 c 0
 93 135 99 102 103 100 c 0
 110 96 116 63 116 38 c 0
 116 25 114 14 111 11 c 0
 106 6 101 4 97 4 c 0
 88 4 80 14 71 34 c 0
EndSplineSet
EndChar

StartChar: j
Encoding: 106 106 56
Width: 175
Flags: HW
LayerCount: 2
Fore
SplineSet
48 272 m 0
 47 275 44 287 44 296 c 0
 43 310 45 314 56 314 c 0
 66 314 69 309 73 295 c 0
 75 285 75 274 74 271 c 0
 71 262 51 262 48 272 c 0
66 -123 m 0
 59 -119 44 -107 32 -97 c 0
 15 -80 8 -70 5 -47 c 0
 2 -37 1 -28 1 -20 c 0
 1 -3 5 9 12 9 c 0
 17 9 19 1 19 -16 c 0
 19 -63 51 -99 93 -99 c 0
 117 -99 123 -95 135 -79 c 0
 141 -69 144 -56 144 -25 c 0
 144 11 139 27 120 86 c 0
 104 133 98 155 98 167 c 0
 98 175 101 178 104 182 c 0
 107 183 108 184 110 184 c 0
 116 184 123 172 131 148 c 0
 135 135 144 107 151 89 c 0
 167 51 175 14 175 -21 c 0
 175 -62 163 -97 143 -118 c 0
 134 -127 127 -129 109 -129 c 0
 108 -129 107 -129 105 -129 c 0
 91 -129 73 -127 66 -123 c 0
EndSplineSet
EndChar

StartChar: k
Encoding: 107 107 57
Width: 268
Flags: HW
LayerCount: 2
Fore
SplineSet
58 11 m 0
 56 17 51 48 47 79 c 0
 43 110 34 156 29 182 c 0
 24 208 16 248 13 274 c 0
 10 300 7 330 5 342 c 0
 3 358 4 365 11 368 c 0
 13 369 15 369 17 369 c 0
 29 369 37 350 46 298 c 0
 51 266 57 239 58 238 c 0
 59 237 70 243 81 252 c 0
 129 291 139 300 151 300 c 0
 155 300 160 299 167 298 c 0
 199 293 212 283 212 268 c 0
 212 257 204 250 189 250 c 0
 185 250 180 251 174 252 c 0
 159 255 153 254 146 244 c 0
 141 237 134 232 130 234 c 0
 126 236 114 230 105 223 c 2
 88 210 l 1
 131 182 l 2
 191 142 239 106 252 89 c 0
 261 77 262 71 257 60 c 0
 253 52 249 47 244 47 c 0
 238 47 229 54 217 66 c 0
 184 98 140 130 121 140 c 0
 111 145 96 159 88 169 c 0
 80 179 74 185 71 185 c 0
 69 185 68 182 68 176 c 0
 68 162 74 129 87 70 c 0
 91 52 93 38 93 29 c 0
 93 23 92 17 90 13 c 0
 86 5 80 0 73 0 c 0
 67 0 60 4 58 11 c 0
EndSplineSet
EndChar

StartChar: l
Encoding: 108 108 58
Width: 130
Flags: HW
LayerCount: 2
Fore
SplineSet
87 8 m 0
 85 12 82 23 81 31 c 0
 76 73 43 208 15 301 c 0
 5 335 0 352 0 361 c 0
 0 370 5 372 14 372 c 0
 31 372 36 360 71 238 c 0
 105 119 121 49 121 29 c 0
 121 14 105 3 96 3 c 0
 92 3 89 5 87 8 c 0
EndSplineSet
EndChar

StartChar: m
Encoding: 109 109 59
Width: 350
Flags: HW
LayerCount: 2
Fore
SplineSet
34 11 m 0
 33 15 24 55 16 100 c 0
 9 141 5 162 5 174 c 0
 5 184 8 188 13 193 c 0
 23 203 25 203 33 193 c 0
 36 189 38 186 40 186 c 0
 44 186 48 192 58 204 c 0
 70 218 82 226 94 226 c 0
 104 226 116 220 128 210 c 0
 140 200 148 195 152 195 c 0
 155 195 156 199 156 206 c 0
 156 229 183 250 205 250 c 0
 212 250 218 248 222 243 c 0
 227 237 241 226 254 220 c 0
 303 195 330 150 336 81 c 0
 337 72 337 63 337 56 c 0
 337 19 327 3 307 3 c 0
 291 3 287 11 287 48 c 0
 287 54 287 62 287 69 c 0
 287 72 287 75 287 78 c 0
 287 129 274 158 246 165 c 0
 237 167 227 173 225 178 c 0
 223 183 217 187 210 187 c 0
 200 187 195 181 191 153 c 0
 189 136 187 120 187 115 c 0
 187 113 193 90 193 71 c 0
 193 47 185 37 170 37 c 0
 167 37 164 37 160 38 c 0
 144 42 142 45 142 79 c 0
 142 110 138 120 121 145 c 0
 110 160 98 172 94 172 c 2
 93 172 l 2
 89 171 81 158 74 144 c 0
 68 131 65 123 65 109 c 0
 65 100 66 87 68 70 c 0
 70 55 71 41 71 32 c 0
 71 9 64 3 49 3 c 0
 42 3 35 7 34 11 c 0
EndSplineSet
EndChar

StartChar: n
Encoding: 110 110 60
Width: 247
Flags: HW
LayerCount: 2
Fore
SplineSet
48 10 m 0
 32 24 17 73 6 155 c 0
 3 179 1 195 1 205 c 0
 1 215 2 220 5 223 c 0
 11 229 16 228 23 222 c 0
 30 216 34 218 42 230 c 0
 53 247 73 258 92 258 c 0
 99 258 107 257 114 254 c 0
 160 235 220 164 227 120 c 0
 233 83 237 55 237 37 c 0
 237 20 233 9 228 5 c 0
 224 2 220 0 217 0 c 0
 205 0 196 21 194 60 c 0
 191 110 177 142 142 177 c 0
 123 196 105 206 92 206 c 0
 85 206 79 204 75 198 c 0
 63 182 56 161 56 137 c 0
 56 123 59 108 63 91 c 0
 73 49 78 30 78 20 c 0
 78 13 75 9 71 6 c 0
 64 0 58 1 48 10 c 0
EndSplineSet
EndChar

StartChar: o
Encoding: 111 111 61
Width: 229
Flags: HW
LayerCount: 2
Fore
SplineSet
163 56 m 0
 180 67 189 86 189 116 c 0
 189 123 188 131 187 140 c 0
 183 177 165 196 128 198 c 0
 118 198 108 198 102 198 c 0
 80 198 79 193 79 181 c 0
 79 172 76 167 70 167 c 0
 65 167 60 164 60 160 c 0
 60 156 55 145 48 137 c 0
 41 128 37 120 37 111 c 0
 37 101 42 90 51 80 c 0
 71 57 96 45 122 45 c 0
 136 45 151 49 163 56 c 0
80 9 m 0
 52 18 13 59 4 89 c 0
 1 97 0 105 0 111 c 0
 0 119 2 129 7 142 c 0
 13 158 17 179 17 189 c 0
 17 205 21 209 50 221 c 0
 77 232 98 239 117 239 c 0
 132 239 146 234 161 228 c 0
 186 218 193 211 205 183 c 0
 215 161 219 140 219 120 c 0
 219 84 206 51 178 22 c 0
 163 6 157 2 135 2 c 0
 133 2 132 2 130 2 c 0
 114 2 91 5 80 9 c 0
EndSplineSet
EndChar

StartChar: p
Encoding: 112 112 62
Width: 186
Flags: HW
LayerCount: 2
Fore
SplineSet
123 55 m 0
 135 64 141 77 141 90 c 0
 141 110 127 133 101 142 c 0
 91 146 82 148 74 148 c 0
 61 148 50 143 44 131 c 0
 41 125 40 120 40 115 c 0
 40 108 42 99 47 83 c 0
 53 65 58 46 59 42 c 0
 60 39 66 37 72 37 c 0
 86 37 109 45 123 55 c 0
71 -160 m 0
 67 -154 61 -134 59 -117 c 0
 54 -78 34 1 24 30 c 0
 20 43 6 69 6 101 c 0
 6 148 13 155 25 167 c 0
 33 175 57 182 65 184 c 0
 68 185 71 185 75 185 c 0
 94 185 121 176 138 163 c 0
 157 149 176 112 176 88 c 0
 176 46 132 10 81 10 c 0
 67 10 66 9 69 -9 c 0
 70 -19 76 -48 82 -71 c 0
 89 -98 93 -121 93 -138 c 0
 93 -151 90 -162 86 -166 c 0
 81 -171 77 -169 71 -160 c 0
EndSplineSet
EndChar

StartChar: q
Encoding: 113 113 63
Width: 217
Flags: HW
LayerCount: 2
Fore
SplineSet
99 50 m 0
 107 60 111 73 111 93 c 0
 111 108 110 123 109 124 c 0
 108 125 94 126 80 125 c 0
 58 123 53 119 44 105 c 0
 37 94 33 82 33 73 c 0
 33 62 38 51 48 45 c 0
 57 39 68 36 75 36 c 0
 84 36 92 41 99 50 c 0
172 -161 m 0
 168 -157 161 -131 155 -104 c 0
 136 -16 126 19 119 19 c 0
 117 19 115 15 113 8 c 0
 111 0 104 -3 89 -3 c 0
 37 -3 0 25 0 68 c 0
 0 111 28 154 61 160 c 0
 66 161 71 161 74 161 c 0
 82 161 87 159 92 153 c 0
 97 147 101 143 103 143 c 0
 105 143 106 146 106 150 c 0
 106 154 105 158 103 165 c 0
 98 181 99 187 106 194 c 0
 110 198 115 200 119 200 c 0
 131 200 138 179 138 142 c 0
 138 103 173 -44 198 -120 c 0
 202 -131 203 -139 203 -145 c 0
 203 -150 202 -154 200 -158 c 0
 196 -165 190 -169 185 -169 c 0
 181 -169 176 -166 172 -161 c 0
EndSplineSet
EndChar

StartChar: r
Encoding: 114 114 64
Width: 230
Flags: HW
LayerCount: 2
Fore
SplineSet
78 2 m 0
 65 12 30 87 26 113 c 0
 24 125 17 149 12 165 c 0
 8 178 6 189 6 196 c 0
 6 206 10 211 18 211 c 0
 20 211 23 211 25 210 c 0
 27 210 28 210 30 210 c 0
 38 210 45 215 57 227 c 0
 81 251 108 263 135 263 c 0
 166 263 196 248 214 217 c 0
 219 208 223 189 223 170 c 0
 223 140 222 138 210 138 c 0
 199 138 196 142 193 160 c 0
 187 197 160 221 130 221 c 0
 123 221 115 219 108 216 c 0
 82 206 62 182 62 159 c 0
 62 149 69 127 77 111 c 0
 85 95 91 77 91 72 c 0
 91 67 95 55 100 46 c 0
 104 38 106 30 106 23 c 0
 106 9 99 -2 90 -2 c 0
 86 -2 82 -1 78 2 c 0
EndSplineSet
EndChar

StartChar: s
Encoding: 115 115 65
Width: 189
Flags: HW
LayerCount: 2
Fore
SplineSet
101 3 m 0
 68 11 47 23 40 37 c 0
 35 47 33 55 33 61 c 0
 33 67 35 71 39 75 c 0
 43 79 47 81 51 81 c 0
 57 81 64 77 66 68 c 0
 71 48 88 36 106 36 c 0
 117 36 129 40 138 49 c 0
 146 57 150 63 150 74 c 0
 150 78 149 82 148 87 c 0
 145 121 131 135 97 139 c 0
 53 144 35 152 18 167 c 0
 8 176 3 188 3 200 c 0
 3 219 16 242 44 272 c 0
 59 288 85 297 102 297 c 0
 111 297 119 294 119 288 c 0
 119 286 118 283 116 280 c 0
 113 275 105 270 98 269 c 0
 81 267 46 236 38 218 c 0
 36 213 35 209 35 205 c 0
 35 190 52 182 104 174 c 2
 159 166 l 1
 167 145 l 2
 176 120 181 99 181 80 c 0
 181 62 176 47 168 34 c 0
 156 15 133 2 113 2 c 0
 109 2 105 2 101 3 c 0
EndSplineSet
EndChar

StartChar: t
Encoding: 116 116 66
Width: 200
Flags: HW
LayerCount: 2
Fore
SplineSet
84 12 m 0
 82 17 81 43 81 69 c 0
 81 114 72 189 67 194 c 0
 66 195 54 193 43 190 c 0
 35 188 28 186 22 186 c 0
 11 186 4 191 4 200 c 0
 4 213 13 220 42 227 c 0
 59 231 63 233 63 241 c 0
 63 244 63 248 62 253 c 0
 54 300 50 331 50 348 c 0
 50 357 51 363 53 366 c 0
 57 371 63 374 67 374 c 0
 78 374 86 358 86 330 c 0
 86 318 88 292 92 275 c 0
 98 244 100 244 119 243 c 0
 129 243 141 242 145 243 c 0
 149 244 161 241 171 238 c 0
 184 234 189 228 189 220 c 0
 189 202 181 194 158 194 c 0
 149 194 137 195 123 198 c 2
 102 201 l 1
 106 161 l 2
 108 139 111 97 111 65 c 0
 111 11 110 7 99 5 c 0
 92 4 86 7 84 12 c 0
EndSplineSet
EndChar

StartChar: u
Encoding: 117 117 67
Width: 245
Flags: HW
LayerCount: 2
Fore
SplineSet
203 -22 m 0
 199 -17 195 -9 195 -6 c 0
 195 -3 192 5 188 10 c 0
 181 19 181 19 165 10 c 0
 154 4 137 0 121 0 c 0
 106 0 89 3 78 9 c 0
 34 33 10 71 10 115 c 0
 10 123 10 132 12 141 c 0
 17 167 28 181 38 181 c 0
 40 181 43 181 45 179 c 0
 51 174 52 168 50 155 c 0
 46 132 44 119 44 109 c 0
 44 100 46 91 49 83 c 0
 59 55 94 33 122 33 c 0
 129 33 135 34 140 37 c 0
 152 43 160 60 160 84 c 0
 160 103 154 127 145 151 c 0
 140 165 136 181 136 186 c 0
 136 195 151 208 160 208 c 0
 162 208 164 208 165 207 c 0
 171 203 192 138 202 91 c 0
 206 71 217 40 225 23 c 0
 233 8 238 -3 238 -10 c 0
 238 -18 231 -24 221 -28 c 0
 214 -31 209 -29 203 -22 c 0
EndSplineSet
EndChar

StartChar: v
Encoding: 118 118 68
Width: 241
Flags: HW
LayerCount: 2
Fore
SplineSet
111 12 m 0
 103 40 40 170 12 217 c 0
 5 229 2 240 2 248 c 0
 2 259 9 266 23 268 c 0
 24 268 25 268 26 268 c 0
 36 268 43 255 101 135 c 0
 112 111 124 93 127 93 c 0
 134 93 158 169 165 216 c 0
 173 267 183 289 200 293 c 0
 204 294 208 294 211 294 c 0
 221 294 226 287 230 271 c 0
 231 268 232 265 232 262 c 0
 232 254 229 247 223 239 c 0
 211 222 161 56 157 17 c 0
 156 5 151 2 135 0 c 0
 119 -2 115 0 111 12 c 0
EndSplineSet
EndChar

StartChar: w
Encoding: 119 119 69
Width: 292
Flags: HW
LayerCount: 2
Fore
SplineSet
63 6 m 0
 53 16 48 32 23 117 c 0
 9 164 2 192 2 206 c 0
 2 213 4 216 7 218 c 0
 9 219 9 220 11 220 c 0
 24 220 38 185 63 99 c 0
 69 77 76 60 78 60 c 0
 80 60 88 87 97 120 c 0
 115 187 120 199 132 199 c 0
 133 199 135 198 136 198 c 0
 144 197 152 186 160 166 c 0
 176 128 207 84 217 84 c 0
 223 84 227 103 232 155 c 0
 236 194 239 236 239 250 c 0
 239 260 240 296 258 296 c 0
 263 296 269 294 275 287 c 0
 281 280 285 270 285 262 c 0
 285 256 283 251 280 248 c 0
 277 245 272 200 268 150 c 0
 260 45 255 30 229 28 c 0
 227 28 226 27 225 27 c 0
 213 27 205 32 181 58 c 0
 165 76 147 98 144 105 c 0
 140 113 138 118 135 118 c 0
 131 118 128 110 126 96 c 0
 122 70 107 20 101 11 c 0
 97 5 87 1 78 1 c 0
 72 1 66 3 63 6 c 0
EndSplineSet
EndChar

StartChar: x
Encoding: 120 120 70
Width: 222
Flags: HW
LayerCount: 2
Fore
SplineSet
176 8 m 0
 165 20 150 31 146 31 c 0
 142 31 138 35 138 39 c 0
 138 50 110 88 102 88 c 0
 99 88 94 75 92 61 c 0
 85 19 75 2 59 2 c 0
 46 2 40 9 40 23 c 0
 40 30 42 38 45 49 c 0
 58 101 63 123 63 135 c 0
 63 146 58 150 50 159 c 0
 18 194 3 220 3 239 c 0
 3 247 6 253 11 258 c 0
 16 263 20 265 23 265 c 0
 29 265 36 256 51 231 c 0
 63 212 76 196 79 196 c 0
 82 196 93 209 104 226 c 0
 129 264 154 286 174 286 c 0
 179 286 184 284 189 281 c 0
 191 280 193 278 193 276 c 0
 193 271 186 264 173 252 c 0
 146 226 117 177 117 155 c 0
 117 143 163 97 164 96 c 0
 200 61 216 35 216 16 c 0
 216 8 214 2 208 -3 c 0
 204 -7 201 -9 198 -9 c 0
 193 -9 187 -4 176 8 c 0
EndSplineSet
EndChar

StartChar: z
Encoding: 122 122 71
Width: 216
Flags: HW
LayerCount: 2
Fore
SplineSet
160 -16 m 4
 153 -11 135 -6 121 -6 c 4
 80 -5 62 3 56 20 c 4
 55 23 54 27 54 30 c 4
 54 40 61 53 78 81 c 4
 105 124 122 173 122 200 c 4
 122 207 121 213 118 216 c 4
 110 226 96 231 82 231 c 4
 70 231 56 227 43 221 c 4
 26 213 14 208 8 208 c 4
 2 208 0 212 0 218 c 4
 0 237 12 252 39 262 c 4
 58 270 76 273 91 273 c 4
 135 273 162 243 162 198 c 4
 162 171 153 141 134 106 c 4
 122 82 111 60 111 55 c 4
 111 48 123 44 148 44 c 4
 155 44 164 44 174 45 c 4
 176 45 178 46 180 46 c 4
 193 46 198 40 206 23 c 4
 211 13 214 7 214 2 c 4
 214 -2 212 -5 208 -9 c 4
 199 -17 188 -22 178 -22 c 4
 171 -22 165 -20 160 -16 c 4
EndSplineSet
EndChar

StartChar: y
Encoding: 121 121 72
Width: 266
Flags: HW
LayerCount: 2
Fore
SplineSet
91 -189 m 0
 48 -176 23 -159 12 -133 c 0
 7 -122 5 -116 5 -108 c 0
 5 -101 7 -93 10 -83 c 0
 15 -68 23 -55 30 -54 c 0
 31 -54 33 -54 34 -54 c 0
 41 -54 42 -61 42 -88 c 0
 42 -127 49 -139 85 -152 c 0
 105 -159 124 -162 140 -162 c 0
 166 -162 188 -152 202 -134 c 0
 210 -124 214 -107 214 -89 c 0
 214 -61 205 -28 189 7 c 0
 178 31 168 53 168 57 c 0
 168 61 163 70 156 78 c 0
 150 85 144 89 138 89 c 0
 135 89 130 88 125 86 c 0
 115 82 91 79 69 79 c 0
 19 79 7 92 3 145 c 0
 2 154 2 162 2 167 c 0
 2 182 6 185 15 188 c 0
 19 189 24 190 27 190 c 0
 35 190 38 185 39 173 c 0
 39 167 40 153 41 144 c 0
 42 130 47 126 65 123 c 0
 69 122 74 122 79 122 c 0
 88 122 98 123 104 125 c 0
 120 131 122 135 122 170 c 0
 122 202 124 210 136 217 c 0
 141 220 144 222 148 222 c 0
 160 222 168 205 177 161 c 0
 183 134 199 92 211 65 c 0
 240 4 254 -48 254 -89 c 0
 254 -125 244 -154 221 -174 c 0
 205 -189 177 -199 146 -199 c 0
 129 -199 109 -195 91 -189 c 0
EndSplineSet
EndChar

StartChar: bar
Encoding: 124 124 73
Width: 317
Flags: HW
LayerCount: 2
Fore
SplineSet
168 8 m 0
 160 16 155 35 155 60 c 0
 155 82 147 126 139 160 c 0
 131 194 115 277 106 347 c 0
 97 417 85 492 81 514 c 0
 76 539 74 557 74 570 c 0
 74 583 76 594 81 601 c 0
 85 607 88 610 91 610 c 0
 108 610 124 535 155 331 c 0
 177 189 187 145 204 114 c 0
 222 81 233 51 233 31 c 0
 233 24 232 17 229 12 c 0
 223 1 211 -4 199 -4 c 0
 188 -4 176 0 168 8 c 0
EndSplineSet
Validated: 1
EndChar

StartChar: braceleft
Encoding: 123 123 74
Width: 203
Flags: HW
LayerCount: 2
Fore
SplineSet
97 -14 m 0
 85 -6 75 4 75 8 c 0
 75 15 59 34 35 53 c 0
 24 62 17 78 17 96 c 0
 17 107 20 120 24 134 c 0
 29 151 35 176 38 187 c 0
 41 198 52 227 62 250 c 0
 74 277 80 293 80 303 c 0
 80 311 76 314 68 314 c 0
 44 314 34 325 27 357 c 0
 22 380 19 401 19 420 c 0
 19 483 45 530 99 566 c 0
 118 579 133 586 142 586 c 0
 149 586 155 581 157 574 c 0
 158 570 158 567 158 564 c 0
 158 554 150 549 130 541 c 0
 81 521 53 475 53 419 c 0
 53 412 54 403 55 395 c 2
 59 359 l 1
 88 359 l 2
 103 359 120 356 124 352 c 0
 129 347 131 340 131 331 c 0
 131 314 122 287 106 251 c 0
 93 221 79 186 75 173 c 0
 71 160 64 142 60 135 c 0
 58 130 57 125 57 119 c 0
 57 103 67 83 78 77 c 0
 84 73 92 67 95 63 c 0
 98 59 115 47 130 37 c 0
 149 24 158 17 158 9 c 0
 158 4 156 -2 151 -12 c 0
 145 -23 137 -29 129 -29 c 0
 121 -29 111 -23 97 -14 c 0
EndSplineSet
Validated: 1
EndChar

StartChar: braceright
Encoding: 125 125 75
Width: 234
Flags: HW
LayerCount: 2
Fore
SplineSet
98 -4 m 0
 92 -1 89 4 89 9 c 0
 89 17 98 28 114 43 c 0
 142 69 155 105 155 140 c 0
 155 191 128 239 79 248 c 0
 63 251 45 257 41 261 c 0
 39 263 38 266 38 272 c 0
 38 297 55 353 80 404 c 0
 93 431 104 464 106 476 c 0
 106 479 108 482 108 485 c 0
 108 503 95 516 44 554 c 0
 30 564 25 573 25 583 c 0
 25 595 31 604 38 605 c 2
 39 605 l 2
 56 605 124 552 141 524 c 0
 148 512 153 501 153 488 c 0
 153 466 144 439 122 394 c 0
 107 362 92 326 90 315 c 0
 89 310 89 306 89 303 c 0
 89 295 92 294 104 294 c 0
 122 294 161 272 161 261 c 0
 161 258 167 246 175 236 c 0
 188 218 197 179 197 138 c 0
 197 123 195 107 193 92 c 0
 188 56 183 46 159 20 c 0
 141 0 128 -9 116 -9 c 0
 111 -9 104 -7 98 -4 c 0
EndSplineSet
Validated: 1
EndChar

StartChar: asciitilde
Encoding: 126 126 76
Width: 447
Flags: HW
LayerCount: 2
Fore
SplineSet
198 381 m 0
 186 393 168 419 159 438 c 0
 150 457 138 474 134 474 c 0
 125 474 76 426 57 397 c 0
 51 389 46 384 41 384 c 0
 33 384 27 396 27 414 c 0
 27 430 36 446 60 472 c 0
 88 503 137 532 155 532 c 0
 157 532 159 532 160 531 c 0
 163 529 179 505 195 476 c 0
 211 447 226 421 231 418 c 0
 234 416 242 415 253 415 c 0
 260 415 270 416 279 417 c 0
 308 420 327 429 357 452 c 0
 384 471 398 480 406 480 c 0
 412 480 415 476 418 467 c 0
 420 462 420 457 420 452 c 0
 420 435 409 419 381 400 c 0
 333 367 309 358 262 358 c 0
 226 358 217 363 198 381 c 0
EndSplineSet
Validated: 1
EndChar

StartChar: plus
Encoding: 43 43 77
Width: 381
Flags: HW
LayerCount: 2
Fore
SplineSet
200 45 m 0
 195 50 189 67 187 81 c 0
 185 94 176 130 168 158 c 2
 153 207 l 1
 91 207 l 2
 43 207 25 211 18 220 c 0
 13 226 10 230 10 235 c 0
 10 249 33 258 79 261 c 2
 135 264 l 1
 139 346 l 2
 142 422 145 430 157 430 c 0
 169 430 174 421 181 392 c 0
 187 371 192 341 192 323 c 0
 192 306 196 282 200 271 c 2
 207 250 l 1
 261 257 l 2
 300 261 324 263 338 263 c 0
 350 263 364 262 364 247 c 0
 364 240 359 230 353 223 c 0
 341 209 293 196 258 196 c 0
 252 196 245 197 240 198 c 0
 233 199 228 199 224 199 c 0
 216 199 214 195 214 183 c 0
 214 173 219 152 225 138 c 0
 233 120 237 102 237 86 c 0
 237 72 234 59 229 50 c 0
 225 42 219 36 214 36 c 0
 210 36 205 38 200 45 c 0
EndSplineSet
Validated: 1
EndChar

StartChar: asterisk
Encoding: 42 42 78
Width: 440
Flags: HW
LayerCount: 2
Fore
SplineSet
241 374 m 0
 237 386 232 407 232 420 c 0
 232 433 229 444 224 444 c 0
 219 444 216 437 216 429 c 0
 216 411 201 397 184 397 c 0
 181 397 177 397 174 398 c 0
 163 401 158 414 158 428 c 0
 158 440 162 456 170 470 c 2
 170 470 182 492 182 501 c 0
 182 511 170 516 148 516 c 0
 133 516 113 514 90 508 c 0
 70 503 55 500 44 500 c 0
 31 500 24 504 24 512 c 0
 24 515 25 519 26 523 c 0
 33 542 69 562 106 567 c 0
 124 569 140 575 140 578 c 0
 140 581 131 592 120 603 c 0
 107 615 99 632 99 644 c 0
 99 653 104 662 112 665 c 0
 113 665 114 666 115 666 c 0
 124 666 140 654 162 632 c 0
 182 612 204 595 208 595 c 0
 212 595 216 612 216 631 c 0
 216 682 225 703 243 703 c 0
 256 703 258 696 258 657 c 0
 258 631 262 611 266 611 c 0
 270 611 283 623 293 637 c 0
 304 652 317 659 328 659 c 0
 337 659 346 654 353 643 c 0
 355 639 357 635 357 632 c 0
 357 625 351 618 336 606 c 0
 319 593 308 580 308 575 c 0
 308 573 310 573 312 573 c 0
 314 573 317 574 321 575 c 0
 324 576 329 577 335 577 c 0
 341 577 348 575 354 574 c 0
 368 570 376 558 376 545 c 0
 376 532 369 518 356 509 c 0
 347 503 342 499 342 496 c 0
 342 493 346 489 354 483 c 0
 363 476 377 470 384 470 c 0
 404 470 417 451 417 434 c 0
 417 424 411 413 402 406 c 0
 393 399 383 395 373 395 c 0
 359 395 343 403 330 416 c 0
 320 426 309 431 303 431 c 0
 297 431 294 427 294 418 c 0
 294 414 295 409 296 404 c 0
 297 400 297 397 297 394 c 0
 297 385 294 376 287 369 c 0
 278 359 269 353 262 353 c 0
 254 353 246 361 241 374 c 0
EndSplineSet
Validated: 1
EndChar

StartChar: comma
Encoding: 44 44 79
Width: 112
Flags: HW
LayerCount: 2
Fore
SplineSet
32 -136 m 0
 25 -129 20 -122 20 -115 c 0
 20 -109 25 -102 31 -98 c 0
 36 -95 40 -89 40 -85 c 0
 40 -81 45 -73 50 -66 c 0
 56 -58 59 -49 59 -40 c 0
 59 -26 51 -11 37 -5 c 0
 28 -1 26 4 26 19 c 0
 26 42 36 55 58 55 c 0
 69 55 75 52 79 42 c 0
 89 18 92 0 92 -32 c 0
 92 -35 92 -93 60 -122 c 0
 55 -127 50 -134 50 -137 c 0
 50 -148 43 -147 32 -136 c 0
EndSplineSet
Validated: 1
EndChar

StartChar: hyphen
Encoding: 45 45 80
Width: 289
Flags: HW
LayerCount: 2
Fore
SplineSet
39 198 m 0
 11 201 5 202 5 215 c 0
 5 218 5 220 5 223 c 2
 8 245 l 1
 109 250 l 2
 164 254 226 258 247 259 c 0
 254 260 260 260 265 260 c 0
 282 260 283 256 283 238 c 0
 283 218 280 213 252 204 c 0
 234 198 191 194 140 194 c 0
 108 194 73 195 39 198 c 0
EndSplineSet
Validated: 1
EndChar

StartChar: period
Encoding: 46 46 83
Width: 66
Flags: HW
LayerCount: 2
Fore
SplineSet
5 11 m 1
 0 26 0 38 5 38 c 0
 7 38 12 44 15 50 c 0
 19 58 25 62 34 63 c 0
 36 63 38 63 40 63 c 0
 54 63 62 53 62 33 c 0
 62 8 55 0 30 -0 c 0
 11 -1 9 0 5 11 c 1
 5 11 l 1
EndSplineSet
Validated: 1
EndChar

StartChar: slash
Encoding: 47 47 84
Width: 272
Flags: HW
LayerCount: 2
Fore
SplineSet
44 58 m 0
 35 64 28 76 28 86 c 0
 28 95 24 103 19 103 c 0
 13 103 10 108 10 116 c 0
 10 125 15 138 23 151 c 0
 29 162 42 197 50 229 c 0
 62 278 85 326 132 403 c 0
 137 411 159 447 180 484 c 0
 220 555 230 574 237 574 c 0
 240 574 243 570 247 566 c 0
 252 562 254 558 254 551 c 0
 254 542 250 530 242 508 c 0
 233 482 215 445 202 425 c 0
 162 362 108 254 94 208 c 0
 88 188 85 166 85 147 c 0
 85 139 86 132 87 125 c 0
 88 118 88 111 88 105 c 0
 88 76 79 50 67 50 c 0
 66 50 66 50 66 50 c 0
 63 50 52 54 44 58 c 0
EndSplineSet
Validated: 1
EndChar

StartChar: parenleft
Encoding: 40 40 85
Width: 259
Flags: HW
LayerCount: 2
Fore
SplineSet
130 -41 m 0
 61 31 46 69 32 202 c 0
 29 233 27 256 27 278 c 0
 27 314 32 349 42 409 c 0
 67 560 90 617 147 676 c 0
 175 705 188 716 198 716 c 0
 201 716 204 715 208 712 c 0
 217 705 221 698 221 691 c 0
 221 680 211 667 190 647 c 0
 144 604 120 549 97 435 c 0
 87 382 82 323 82 268 c 0
 82 203 89 143 103 103 c 0
 121 52 172 3 213 -6 c 0
 235 -10 241 -16 241 -33 c 0
 241 -66 221 -103 204 -103 c 0
 196 -103 162 -75 130 -41 c 0
EndSplineSet
Validated: 1
EndChar

StartChar: quotesingle
Encoding: 39 39 86
Width: 79
Flags: HW
LayerCount: 2
Fore
SplineSet
11 526 m 0
 8 542 7 558 7 572 c 0
 7 610 15 638 28 638 c 0
 38 638 44 620 44 587 c 0
 44 573 49 557 56 548 c 0
 62 540 68 530 68 526 c 0
 68 516 44 500 28 500 c 0
 18 500 14 505 11 526 c 0
EndSplineSet
Validated: 1
EndChar

StartChar: parenright
Encoding: 41 41 87
Width: 265
Flags: HW
LayerCount: 2
Fore
SplineSet
160 -89 m 1
 147 -80 141 -71 141 -63 c 0
 141 -55 146 -47 158 -40 c 0
 183 -22 200 114 200 235 c 0
 200 292 197 346 188 383 c 0
 164 487 123 571 72 626 c 0
 38 662 26 677 26 691 c 0
 26 696 28 702 32 708 c 0
 36 714 42 717 48 717 c 0
 86 717 160 624 202 515 c 0
 233 433 248 354 248 253 c 0
 248 184 241 105 228 8 c 0
 217 -72 208 -102 189 -102 c 0
 181 -102 172 -97 160 -89 c 1
 160 -89 l 1
EndSplineSet
Validated: 1
EndChar

StartChar: exclam
Encoding: 33 33 88
Width: 146
Flags: HW
LayerCount: 2
Fore
SplineSet
71 174 m 0
 66 180 58 222 54 267 c 0
 49 313 37 400 28 462 c 0
 14 548 8 617 8 668 c 0
 8 726 16 760 34 767 c 0
 37 768 40 769 42 769 c 0
 52 769 55 758 55 728 c 0
 55 720 54 711 54 701 c 0
 54 698 54 694 54 690 c 0
 54 623 70 478 92 350 c 0
 104 280 110 233 110 205 c 0
 110 185 107 174 102 171 c 0
 86 161 82 161 71 174 c 0
83 -126 m 0
 82 -120 81 -115 81 -110 c 0
 81 -99 85 -93 97 -84 c 0
 107 -76 118 -70 121 -70 c 0
 127 -70 131 -88 131 -107 c 0
 131 -117 130 -126 127 -133 c 0
 122 -147 114 -153 106 -153 c 0
 96 -153 87 -144 83 -126 c 0
EndSplineSet
Validated: 1
EndChar

StartChar: dollar
Encoding: 36 36 89
Width: 436
Flags: HW
LayerCount: 2
Fore
SplineSet
158 -37 m 2
 148 -32 140 -18 140 -7 c 0
 140 10 132 14 94 14 c 0
 41 14 3 45 3 90 c 0
 3 108 9 118 18 118 c 0
 27 118 39 109 50 91 c 0
 61 73 70 67 90 67 c 0
 95 67 100 67 106 68 c 2
 145 71 l 1
 148 144 l 2
 149 163 149 180 149 195 c 0
 149 270 138 301 110 318 c 0
 82 334 61 382 61 424 c 0
 61 432 62 439 63 446 c 0
 66 463 89 497 113 522 c 0
 152 562 158 576 169 645 c 0
 182 730 200 775 212 775 c 0
 221 775 226 754 226 708 c 0
 226 700 226 692 226 684 c 0
 225 672 225 660 225 650 c 0
 225 620 227 599 231 599 c 0
 236 599 257 604 279 610 c 0
 294 614 308 616 320 616 c 0
 350 616 366 603 366 577 c 0
 366 571 365 564 363 557 c 0
 359 543 356 537 340 537 c 0
 332 537 321 539 305 541 c 0
 293 543 283 543 274 543 c 0
 254 543 240 539 228 531 c 0
 204 516 203 508 203 423 c 2
 203 331 l 1
 241 313 l 2
 320 275 389 222 407 185 c 0
 416 167 420 150 420 134 c 0
 420 75 364 30 265 16 c 0
 221 10 206 3 197 -15 c 0
 186 -36 182 -44 175 -44 c 0
 171 -44 166 -41 158 -37 c 2
 158 -37 l 2
376 103 m 0
 394 115 394 118 379 118 c 0
 369 118 354 111 345 102 c 0
 325 82 322 60 342 76 c 0
 349 82 364 94 376 103 c 0
297 103 m 0
 333 121 348 133 348 147 c 0
 348 154 344 162 336 172 c 0
 323 189 222 254 210 254 c 0
 204 254 202 228 202 196 c 0
 202 148 208 87 216 83 c 0
 223 80 229 78 235 78 c 0
 247 78 262 85 297 103 c 0
150 432 m 0
 150 455 148 473 145 473 c 0
 135 473 123 442 123 421 c 0
 123 417 123 413 124 410 c 0
 128 397 133 390 138 390 c 0
 144 390 150 405 150 432 c 0
EndSplineSet
Validated: 1
EndChar

StartChar: numbersign
Encoding: 35 35 90
Width: 535
Flags: HW
LayerCount: 2
Fore
SplineSet
109 40 m 1
 101 57 97 66 97 77 c 0
 97 88 101 100 107 122 c 0
 116 153 121 172 121 183 c 0
 121 193 117 197 108 197 c 0
 104 197 99 196 93 195 c 0
 57 187 33 183 20 183 c 0
 11 183 7 185 7 189 c 0
 7 194 13 202 23 214 c 0
 38 232 96 256 116 256 c 0
 119 256 121 256 122 255 c 0
 123 255 123 255 124 255 c 0
 132 255 148 287 148 308 c 0
 148 316 142 320 131 320 c 0
 118 320 99 314 76 303 c 0
 59 294 44 290 34 290 c 0
 22 290 16 295 16 307 c 0
 16 327 59 355 114 371 c 2
 164 384 l 1
 170 432 l 2
 175 475 189 500 206 500 c 0
 208 500 211 500 213 499 c 0
 225 494 231 485 231 469 c 0
 231 461 229 451 226 438 c 0
 223 425 221 412 221 405 c 0
 221 402 221 401 222 400 c 0
 223 398 231 397 241 397 c 0
 247 397 253 397 260 398 c 0
 293 401 295 402 310 450 c 0
 326 502 345 530 363 530 c 0
 374 530 380 525 380 515 c 0
 380 506 375 493 367 474 c 0
 355 448 349 431 349 419 c 0
 349 404 361 399 385 399 c 0
 405 399 427 403 436 407 c 0
 442 410 451 412 460 412 c 0
 483 412 510 403 517 389 c 0
 520 384 521 379 521 374 c 0
 521 367 518 360 512 351 c 0
 504 338 498 333 483 333 c 0
 476 333 468 334 457 335 c 0
 434 338 403 343 388 348 c 0
 377 351 368 353 361 353 c 0
 340 353 332 340 332 310 c 0
 332 281 333 277 351 277 c 0
 354 277 357 277 360 277 c 0
 372 278 382 278 389 278 c 0
 416 278 420 273 420 255 c 0
 420 230 390 214 343 213 c 0
 327 213 314 209 314 206 c 0
 314 191 296 62 291 48 c 0
 288 38 281 33 271 33 c 0
 262 33 250 39 240 50 c 0
 227 64 226 70 234 78 c 0
 240 84 244 98 244 109 c 0
 244 120 248 136 252 144 c 0
 256 152 262 172 265 187 c 2
 270 215 l 1
 224 210 l 2
 199 207 177 203 175 202 c 0
 173 200 170 161 169 115 c 0
 166 33 157 6 135 6 c 0
 129 6 117 21 109 40 c 1
 109 40 l 1
264 279 m 0
 271 285 280 303 284 320 c 2
 290 350 l 1
 248 344 l 2
 202 338 192 329 192 292 c 0
 192 271 195 268 221 268 c 0
 237 268 256 273 264 279 c 0
EndSplineSet
Validated: 1
EndChar

StartChar: percent
Encoding: 37 37 91
Width: 547
Flags: HW
LayerCount: 2
Fore
SplineSet
373 131 m 2
 351 144 339 168 339 194 c 0
 339 212 345 232 357 249 c 0
 366 262 372 277 372 284 c 0
 372 285 372 286 372 287 c 0
 371 291 370 294 370 297 c 0
 370 310 381 318 402 322 c 0
 417 325 433 331 439 335 c 0
 446 342 450 341 452 335 c 0
 454 330 461 326 469 326 c 0
 503 326 531 290 531 252 c 0
 531 247 530 242 529 237 c 0
 521 198 489 155 453 136 c 0
 432 125 418 119 406 119 c 0
 395 119 385 123 373 131 c 2
 373 131 l 2
446 178 m 1
 466 188 489 231 489 253 c 0
 489 255 489 257 489 258 c 0
 486 269 478 272 445 274 c 0
 436 274 429 275 423 275 c 0
 406 275 403 272 403 262 c 0
 403 255 398 244 392 240 c 0
 385 233 381 219 381 205 c 0
 381 190 386 175 394 173 c 0
 403 171 410 169 416 169 c 0
 426 169 434 172 446 178 c 1
 446 178 l 1
206 139 m 0
 201 147 198 156 198 167 c 0
 198 182 203 200 212 225 c 0
 217 239 224 270 227 293 c 0
 236 376 281 535 301 557 c 0
 313 570 331 574 331 563 c 0
 331 559 323 531 314 500 c 0
 286 407 274 350 252 204 c 0
 247 169 239 145 231 137 c 0
 218 124 217 124 206 139 c 0
51 328 m 2
 38 332 23 342 17 351 c 0
 9 362 6 379 6 397 c 0
 6 454 39 530 70 530 c 0
 73 530 75 530 77 529 c 0
 79 528 80 526 80 523 c 0
 80 517 76 506 67 488 c 0
 56 468 47 438 46 421 c 0
 46 416 45 413 45 409 c 0
 45 393 50 387 61 380 c 0
 72 373 82 369 91 369 c 0
 101 369 111 373 120 381 c 0
 140 399 150 418 150 437 c 0
 150 452 144 468 130 482 c 0
 112 501 102 520 102 534 c 0
 102 542 105 548 110 552 c 0
 116 556 123 558 131 558 c 0
 145 558 160 552 163 542 c 0
 165 535 172 519 178 506 c 0
 184 493 187 476 187 454 c 0
 187 449 186 443 186 437 c 0
 184 401 179 388 159 364 c 0
 144 345 126 332 108 327 c 0
 93 322 80 319 78 319 c 0
 77 320 65 323 51 328 c 2
 51 328 l 2
EndSplineSet
Validated: 1
EndChar

StartChar: plusminus
Encoding: 177 177 92
Width: 397
Flags: HW
LayerCount: 2
Fore
SplineSet
21 26 m 0
 13 34 9 43 9 51 c 0
 9 62 15 71 28 78 c 0
 38 84 100 102 165 118 c 0
 230 134 261 141 284 141 c 0
 300 141 312 138 329 132 c 0
 361 121 378 105 378 87 c 0
 378 79 375 71 368 62 c 0
 358 51 330 46 274 46 c 0
 230 46 163 38 126 30 c 0
 82 19 60 14 47 14 c 0
 34 14 29 18 21 26 c 0
235 284 m 1
 228 291 222 310 222 326 c 0
 222 341 218 373 215 396 c 2
 208 438 l 1
 116 435 l 2
 97 435 82 434 70 434 c 0
 26 434 25 439 25 461 c 0
 25 491 44 500 135 512 c 2
 188 518 l 1
 188 584 l 2
 188 640 192 652 212 663 c 0
 219 667 226 669 231 669 c 0
 248 669 255 645 255 586 c 2
 255 526 l 1
 292 529 l 2
 297 529 302 529 306 529 c 0
 351 529 368 516 368 482 c 0
 368 452 365 450 329 450 c 2
 289 450 l 1
 289 372 l 2
 289 307 286 292 268 282 c 0
 261 279 256 277 251 277 c 0
 245 277 240 279 235 284 c 1
 235 284 l 1
EndSplineSet
Validated: 1
EndChar

StartChar: quotedbl
Encoding: 34 34 93
Width: 177
Flags: HW
LayerCount: 2
Fore
SplineSet
22 498 m 0
 14 508 8 576 8 630 c 0
 8 666 11 696 16 698 c 0
 19 699 22 700 25 700 c 0
 38 700 45 682 52 634 c 0
 57 603 59 574 59 550 c 0
 59 515 54 491 44 489 c 0
 37 488 27 492 22 498 c 0
132 528 m 0
 121 545 114 577 114 607 c 0
 114 622 116 637 119 650 c 0
 131 696 135 704 150 704 c 0
 159 704 161 687 161 611 c 0
 161 535 159 518 150 518 c 0
 144 518 136 523 132 528 c 0
EndSplineSet
Validated: 1
EndChar

StartChar: ampersand
Encoding: 38 38 94
Width: 385
Flags: HW
LayerCount: 2
Fore
SplineSet
34 8 m 2
 15 14 7 25 7 49 c 0
 7 56 8 65 9 75 c 0
 15 118 36 152 88 203 c 2
 136 249 l 1
 116 287 l 2
 93 331 84 382 84 472 c 0
 84 534 84 535 103 553 c 0
 114 563 136 576 153 581 c 0
 173 588 188 591 201 591 c 0
 224 591 237 580 242 556 c 0
 254 500 258 477 258 448 c 0
 258 441 257 433 257 424 c 0
 254 382 250 369 227 327 c 0
 212 300 196 274 190 270 c 0
 185 266 181 257 181 252 c 0
 181 239 202 204 220 184 c 0
 228 177 241 160 249 146 c 0
 258 133 267 122 270 122 c 0
 279 122 309 164 323 195 c 0
 330 211 340 227 345 231 c 0
 355 239 368 235 368 224 c 0
 368 210 333 144 313 119 c 2
 291 92 l 1
 309 75 l 2
 318 66 333 58 341 58 c 0
 351 58 355 54 355 44 c 0
 355 35 352 32 345 35 c 0
 339 37 329 39 322 39 c 0
 315 39 302 47 291 58 c 0
 280 70 273 76 266 76 c 0
 258 76 250 70 237 59 c 0
 208 33 177 19 132 9 c 0
 109 4 91 1 76 1 c 0
 61 1 48 4 34 8 c 2
 34 8 l 2
110 36 m 0
 159 46 211 70 230 91 c 0
 234 96 236 100 236 105 c 0
 236 117 225 133 197 167 c 0
 183 185 167 205 161 213 c 0
 157 218 155 221 152 221 c 0
 147 221 140 214 123 196 c 0
 107 180 87 160 79 152 c 0
 70 145 57 125 48 108 c 0
 38 88 33 72 33 59 c 0
 33 45 39 36 52 31 c 0
 57 28 62 27 62 26 c 0
 62 26 83 30 110 36 c 0
206 349 m 0
 224 384 232 405 232 435 c 0
 232 453 229 474 224 504 c 0
 217 543 211 558 193 558 c 0
 184 558 173 555 157 549 c 2
 120 536 l 1
 115 488 l 2
 113 471 112 454 112 438 c 0
 112 379 125 327 150 281 c 0
 156 268 157 268 168 283 c 0
 174 291 191 321 206 349 c 0
EndSplineSet
Validated: 1
EndChar
